<svg xmlns="http://www.w3.org/2000/svg" xmlns:xlink="http://www.w3.org/1999/xlink" width="610.875" height="303.799" viewBox="0 0 610.875 303.799"><defs><clipPath id="a"><path d="M0,0H610.875V80.527H0Z" transform="translate(0 0.037)" fill="none"/></clipPath></defs><path d="M3.945,0c1.07,3.142,4.53,12.8,4.949,14.818.37,1.777.53,3.845,1.6,5.351,3.386,4.763,7.464,9.278,11.031,13.974a15.768,15.768,0,0,0,3.382,3.6c2.089,1.446,5.115,1.692,8.16,1.632q-.222.407-.456.814c-.593,1.008-1.237,1.982-1.911,2.934a48.644,48.644,0,0,1-4.445,5.3c-1.278,1.335,4.419,6.66,3.041,7.76-.248-.394-.541,2.692-5.126-2.48C21.58,44.886,9.7,32.555,5.271,24.791A28.339,28.339,0,0,1,2.163,14.773C1.541,10.888.33,7.11,0,3.179A40.845,40.845,0,0,1,3.945,0" transform="translate(289.365 56.741)" fill="#feb187"/><path d="M.789,6.588C1.311,6.975,1.8,7.4,2.3,7.809,2.469,5.614.02,3.464.881,1.1a.553.553,0,0,1,.9-.229,4.736,4.736,0,0,1,1.379,2.39A8.4,8.4,0,0,1,3.2.381.546.546,0,0,1,4.1.152a5.51,5.51,0,0,1,.967,1.619c.03-.177.069-.358.118-.538a.548.548,0,0,1,.979-.125c1.47,2.01.849,4.459,1.325,6.712a20.5,20.5,0,0,1,.941-2.431.546.546,0,0,1,1,.266,14.261,14.261,0,0,1-.514,4.916C8.788,12.633,7.2,15.045,5.2,15.34a2.693,2.693,0,0,1-2.792-1.7,13.306,13.306,0,0,1-.6-2.67A15.374,15.374,0,0,0,.058,7.3c-.232-.413.278-1.051.731-.712" transform="translate(285.822 44.92)" fill="#feb187"/><g transform="translate(0 223.235)"><path d="M0,0H610.875V80.527H0Z" transform="translate(0 0.037)" fill="none"/><g clip-path="url(#a)"><path d="M610.875,40.263c0,22.238-136.748,40.263-305.436,40.263S0,62.5,0,40.263,136.748,0,305.439,0,610.875,18.026,610.875,40.263" transform="translate(0 0.037)" fill="#f1f2f2"/></g></g><path d="M12.992,65.843l-2.056.355L0,.359,2.056,0Z" transform="translate(472.432 170.223)" fill="#231f20"/><path d="M0,65.843l2.056.355L12.992.359,10.933,0Z" transform="translate(414.559 170.223)" fill="#231f20"/><path d="M77.951,10.639c0,5.875-17.45,10.639-38.976,10.639S0,16.514,0,10.639,17.45,0,38.976,0,77.951,4.764,77.951,10.639" transform="translate(411.016 156.037)" fill="#efaf18"/><path d="M77.951,10.639c0,5.875-17.45,10.639-38.976,10.639S0,16.514,0,10.639,17.45,0,38.976,0,77.951,4.764,77.951,10.639" transform="translate(411.016 150.127)" fill="#fcd975"/><path d="M12.992,65.843l-2.055.355L0,.359,2.062,0Z" transform="translate(350.781 170.223)" fill="#231f20"/><path d="M0,65.843l2.056.355L12.992.359,10.933,0Z" transform="translate(291.727 170.223)" fill="#231f20"/><path d="M77.951,10.639c0,5.875-17.45,10.639-38.976,10.639S0,16.514,0,10.639,17.45,0,38.976,0,77.951,4.764,77.951,10.639" transform="translate(288.184 156.037)" fill="#efaf18"/><path d="M77.951,10.639c0,5.875-17.45,10.639-38.976,10.639S0,16.514,0,10.639,17.45,0,38.976,0,77.951,4.764,77.951,10.639" transform="translate(288.184 150.127)" fill="#fcd975"/><path d="M12.992,65.843l-2.055.355L0,.359,2.059,0Z" transform="translate(120.47 192.682)" fill="#231f20"/><path d="M2.842,66.194.8,66.2.7,0,2.746,0Z" transform="translate(96.849 176.133)" fill="#231f20"/><path d="M0,65.843l2.056.355L12.992.359,10.933,0Z" transform="translate(62.597 192.682)" fill="#231f20"/><path d="M77.951,10.639c0,5.875-17.45,10.639-38.976,10.639S0,16.514,0,10.639V4.926C6.369,3.685,30.554,0,38.976,0,52.794,0,71.031,1.966,77.951,4.926Z" transform="translate(59.054 177.315)" fill="#efaf18"/><path d="M77.951,10.637c0,5.876-17.45,10.641-38.976,10.641S0,16.513,0,10.637,17.45,0,38.976,0,77.951,4.761,77.951,10.637" transform="translate(59.054 171.405)" fill="#fcd975"/><path d="M.15,5.174S-4.986,14.1,44.881,9.138C39.427-8.777.15,5.174.15,5.174" transform="translate(422.827 163.13)" fill="#0f0f3f"/><path d="M6.43,26.995c.219.179,6.531.19,6.562.193-1.12-2.74-.791-2.474-2.138-7.819-1.12-4.429-1.377-5.389-4.567-8.2C3.709,8.891,3.161,4.447,2.169,0c-.011.033-.019.069-.03.1-.178.547-.356,1.091-.53,1.638-.011.029-.019.051-.026.077-.068.23-.163.555-.189.646-.129.478-.246,1-.359,1.485C1.015,4.039.879,4.71.8,5.064.762,5.385.641,6.18.629,6.29.311,8.968.217,7.957.009,10.65a16.866,16.866,0,0,0,.575,4.258c1.994,4.327,2.88,9.657,5.846,12.087" transform="translate(477.157 101.661)" fill="#feb187"/><path d="M41.31,66.666c-.274-10.257-4.476-21.949-3.276-31.448.974-7.745,1.594-19.02-1.824-25.464C32.572,2.9,26.37,1.678,20.912.363,15.871-.849,7.79.961,3.766,6.011.07,10.642.479,17.584.019,25.206c-.248,4,1.981,14.167,2.269,15.453a7.682,7.682,0,0,0-.168,1.163c-.387,5.972-.139,11.959-.036,17.943.088,5.236-.438,10.781.54,15.873C4.247,84.051,9.008,89,14.244,90.443a17.379,17.379,0,0,0,10.514-.535c3.251-1.126,6.381-2.988,9.642-4.025a13.575,13.575,0,0,0,2.163-.866l-.533-9.395,1.908,8.492c2.021-1.706,2.692-4.489,3.17-10.038a64.518,64.518,0,0,0,.2-7.41" transform="translate(433.457 9.457)" fill="#f65338"/><path d="M10,3.709a24.542,24.542,0,0,1,9.91,2.2c.263-.259.538-.538.9-.852.75-.651,1.588-1.108,1.394-2.079a2.985,2.985,0,0,0-.677-1.3c.088-.014.172-.024.26-.041,1.23-.273.586-1.67-.64-1.4a5.263,5.263,0,0,1-1.457.082A1.8,1.8,0,0,1,19.324.26a3.469,3.469,0,0,0-.5-.1,1.463,1.463,0,0,0-.344-.007,1.534,1.534,0,0,1-.4,0c-.384-.055-.754-.1-1.109-.123-4.8-.307-20.563,2.294-16.234,4C3.822,3.859,6.892,3.566,10,3.709" transform="translate(366.135 125.303)" fill="#feb187"/><path d="M.857,14.384c2.716,2.393,8.669,3.367,11.214-.064a2.21,2.21,0,0,0,2.019-2.955c-.05-.186-.084-.369-.13-.552a2.81,2.81,0,0,0-.194-.949c-.2-1.11-.339-2.239-.476-3.363-.057-.455-.11-.91-.171-1.361-.008-.3-.008-.595,0-.888a2.624,2.624,0,0,0-.4-1.565c-.023-.09-.038-.183-.061-.272-.05-.24-.107-.476-.168-.713-.655-2.507-3.28-2.02-3.767.014A2.314,2.314,0,0,0,7.641,3.141c-.038.122-.069.247-.1.369A8.308,8.308,0,0,0,7.314,5.2a.051.051,0,0,1-.023,0l-.057.029A1.689,1.689,0,0,0,5,5.48a1.623,1.623,0,0,0-.891-.111,2.2,2.2,0,0,0-.194-.33,2.572,2.572,0,0,0-.244-.695C2.838,2.7.621,3.309.164,5.1A2.841,2.841,0,0,0,.137,6.386a13.067,13.067,0,0,1,.19,1.637C.294,8.46.255,8.9.221,9.334v0C.153,10.126.1,10.907.069,11.7a2.782,2.782,0,0,0,.788,2.686" transform="translate(447.63 48.466)" fill="#feb187"/><path d="M.055,3.984A14.622,14.622,0,0,1,.24,5.626C.2,6.065.168,6.5.135,6.941v0s4.208,7.947,12.857.528c-.054-.453-.553-4.286-.615-4.739-.007-.3-.007-.6,0-.891A2.776,2.776,0,0,0,12,.273c-.022-.09-.04-.183-.061-.273L7.084,1.1l-3.673.837L.084,2.695a3,3,0,0,0-.029,1.29" transform="translate(447.63 50.83)" fill="#f19c80"/><path d="M1.719,3.29A7.277,7.277,0,0,1,4,1.675c1.849-.87,4.827-.138,6.778-.56,3.334-.724,8.01-2.259,10.835.335,2.626,2.409,2.193,6.262,2.736,9.62.114.7.271,1.394.447,2.074.033-.033.066-.065.092-.095A3.78,3.78,0,0,1,27.5,11.935a1.928,1.928,0,0,1,1.889,1.3c.569,2.667-.726,5.127-2.674,6.924l-.051.044a13.427,13.427,0,0,1,.147,3.486c-.4,4.162-3,7.19-5.736,10.159-2.52,2.74-5.568,3.315-9.151,2.387-3.627-.939-5.45-3.544-6.965-6.764-1.647-3.493-3.173-6.931-3.433-10.817-.312-4.77-3.393-11.5.191-15.362" transform="translate(437 20.096)" fill="#feb187"/><path d="M41.325,0q-1.277,1.773-2.491,3.6c-2.59,3.911-3.867,8.2-8.45,9.952a116.818,116.818,0,0,0-14.691,6.772c-4.9,2.7-10.677,5.687-14.511,9.871-.939,1.03-1.148.89-1.181,2.26-.081,4.047,7.9.214,10.123-.462q5.971-1.811,11.847-3.925c.928-.336,1.886-.668,2.862-1.008,4.667-1.64,9.653-3.482,13.187-6.787,2.763-2.581,5.357-5.425,8.043-8.124A52.848,52.848,0,0,1,41.325,0" transform="translate(383.851 96.932)" fill="#feb187"/><path d="M.829,13.3A36.461,36.461,0,0,0,0,3.848,24.689,24.689,0,0,1,4.053,2.76c.661-.123,1.325-.243,1.986-.355,1.441-.254,2.855-.5,4.158-.856,2-.551,3.676-1,5.64-.047a10.914,10.914,0,0,0,3.4,1.356c2.2.236,3.318-1.251,5.02-2.187a5.467,5.467,0,0,1,2.12-.656C27.985-.16,29.93,1.273,31.4,1.821c1.885.7,3.8,1.331,5.722,1.94a.753.753,0,0,0,.1.029c.732.239,1.474.471,2.206.7l2.146.685a8.122,8.122,0,0,1,.862.326,3.677,3.677,0,0,1,2.333,2.988,7.986,7.986,0,0,1,.093,2.042,2.282,2.282,0,0,0-.56.486,12,12,0,0,0-2.351,4.845,2.732,2.732,0,0,1-.06.957,37.9,37.9,0,0,0-.963,4.573,2.743,2.743,0,0,1-1.56,2.317,2.946,2.946,0,0,1-1.067.236,26.943,26.943,0,0,1-3.158-.069c-1.489-.116-2.971-.319-4.46-.519-.366-.047-.732-.091-1.1-.127-.664-.073-1.329-.127-1.993-.17a1.7,1.7,0,0,1-.579.83c-4.945,4.091-12.1,4.678-16.881.007a1.872,1.872,0,0,1-.537-.921c-.687-.033-1.374-.073-2.057-.127a2.381,2.381,0,0,1-2.963.265A9.325,9.325,0,0,1,.627,17.73,7.09,7.09,0,0,1,.56,13.937,2.826,2.826,0,0,1,.829,13.3" transform="translate(433.457 61.469)" fill="#feb187"/><path d="M87.681,63.351C86.06,58.3,83.714,52.806,84.128,47.814a21.449,21.449,0,0,1,1.338-5.509c.3-.842.638-1.68.968-2.518q.352.9.708,1.794c1.423,3.559,5.342,15.947,6.127,19.739.121.58,3.813.292,6.127-.1a13.965,13.965,0,0,0,2.248-.517c2.167-.746.6-11.638-.018-13.864-.726-2.6-1.643-5.191-2.138-7.791-1.122-5.874-1.276-11.7-1.709-17.649-.4-5.549-1.093-11.841-4.345-16.545-2.053-2.98-16.137-.93-27.709-1.466C56.943,2.99,49.965-.406,48.7.04c-4.184,1.481-6.259,5.047-7.865,9a116.728,116.728,0,0,0-3.641,12c-1.6,5.6-1.654,11.59-3.593,17.076C32.7,40.658-1.307,59.315.039,61.844a38.092,38.092,0,0,0,4.11,6.62c1.261,1.5,37.272-16.131,38.244-17.431a26.731,26.731,0,0,0,3.63-7.078c.4-1.134.77-2.293,1.118-3.452A19.333,19.333,0,0,1,48.2,42.53a9.159,9.159,0,0,1,.829,3.644c.037,3.977-1.665,7.772-2.713,11.549-1.646,5.926-4.349,13.189-4.283,19.41a2.945,2.945,0,0,0,.2,1.215c.1.214.213.421.33.624,1.852,3.079,5.5,3.951,8.723,4.8,9.962,2.614,20.992,5.52,31.164,2.26,3.6-1.152,7.465-2.991,8.466-7.008.851-3.445-1.514-9.168-2.336-12.557-.242-1.012-.554-2.049-.895-3.113" transform="translate(386.214 63.833)" fill="#262262"/><path d="M7.086,16.437A3.376,3.376,0,0,0,4.71,17.491a19.262,19.262,0,0,0-1.06-2.023c-.35,1.157-.714,2.314-1.122,3.446C.906,14.609-2.167,4.559,2.385,0c-4.319,10.467,4.7,16.437,4.7,16.437" transform="translate(428.732 88.658)" fill="#0f0f3f"/><path d="M0,3.332S3.056,1.835,5.905.215c-.327.805-.659,1.61-.964,2.419A19.043,19.043,0,0,1,0,3.332" transform="translate(466.527 102.843)" fill="#0f0f3f"/><path d="M2.577,14.073A3.922,3.922,0,0,1,1.21,15.367c-.227-.592-.457-1.185-.68-1.777C3.251,11.952.738.475.636,0,.77.417,4.2,11.366,2.577,14.073" transform="translate(472.432 89.84)" fill="#0f0f3f"/><path d="M10.662,11.076A31.128,31.128,0,0,0,6.921,1.79C5.886.313,4.767-.343,3.728.954c.15-.18-2.034-1.26-2.563-.869C.227.773.295,3.665.193,4.95A59.922,59.922,0,0,0,.347,16.185a50.038,50.038,0,0,0,.814,6.184,4.266,4.266,0,0,0,1.4,3.157,1.98,1.98,0,0,0,.927.379,2.261,2.261,0,0,0,3.5.74,1.933,1.933,0,0,0,1.8.133,3.181,3.181,0,0,0,1.373-1.462,1.8,1.8,0,0,0,1.422-.011A2.64,2.64,0,0,0,12.913,23.3c.311-2.026-.375-3.989-.818-5.938-.48-2.107-.908-4.214-1.433-6.284" transform="translate(445.268 231.692)" fill="#feb187"/><path d="M12.128,16.934a13.363,13.363,0,0,0-.256-1.317A62.648,62.648,0,0,0,7.9,4.357C7.346,3.168,6.389.409,5.27.02c-.634-.22-2.3,1.405-2.095,1.541C1.748.622.932,1.554.484,3.238-.3,6.191.057,11.46.25,13.074c.067.569.152,1.148.252,1.732a39.546,39.546,0,0,0,.934,4.487c.378,1.541.549,3.115.9,4.659.222.972.519,2.223,1.472,2.748A1.634,1.634,0,0,0,5.8,26.41a2.038,2.038,0,0,0,1.887.759,1.973,1.973,0,0,0,1.3-.668,3.038,3.038,0,0,0,1.464-.983,3.479,3.479,0,0,0,1.286-1.86c1.008-.418,1.335-1.79,1.231-3.071a13.378,13.378,0,0,0-.845-3.654" transform="translate(458.259 226.963)" fill="#feb187"/><path d="M0,2.9S6.687,0,11.153,0,21.259.539,21.259.539L12.643,9.457Z" transform="translate(431.095 164.312)" fill="#f19c80"/><path d="M19.937,24.289c-.75-8.411.319-22.475-11.356-23.715C6.022.3,3.59-.548.636.534c-1.482,2.6,0,10.536.681,13.629C3.246,22.905,5.246,31.589,6.863,40.41a59.152,59.152,0,0,0,2.592,9.064c1.414,5,2.939,9.957,4.288,14.987a3.742,3.742,0,0,0,.239.915c.312,1.174.613,2.355.9,3.536A2.854,2.854,0,0,0,18.3,70.853a3.282,3.282,0,0,0,2.345-3.4c.007-.568,0-1.14.007-1.709a3.3,3.3,0,0,0,.6-2.129c-.544-13.1-.152-26.265-1.319-39.326" transform="translate(444.086 164.312)" fill="#feb187"/><path d="M25.495,66.407a3.511,3.511,0,0,0-.109-.944c-.589-5.2-.979-10.414-1.489-15.613a58.576,58.576,0,0,0-.9-9.444c-1.744-8.821-3.064-17.671-4.482-26.547C17.338,6.476,16.4.443,7.309,0,4.935-.11,1.8,1.988.57,3.264c-1.2,1.261-.225,8.88.416,12.56a131.091,131.091,0,0,0,3.544,15C8.277,43.382,13.546,55.4,17.908,67.75a3.167,3.167,0,0,0,1.365,1.722c.21.527.424,1.051.641,1.578a3.2,3.2,0,0,0,3.5,2.19,3.049,3.049,0,0,0,2.546-3.193c-.173-1.213-.323-2.426-.465-3.64" transform="translate(426.37 166.676)" fill="#feb187"/><path d="M2.286,16.991C-.126,13.652-.39,8.286.4,4.656,1.754,6.877,2.484,9.946,5.6,10.274a5.171,5.171,0,0,0,5.531-3.921A7.965,7.965,0,0,0,11.2,2.92c-.18-.99-.426-1.97-.694-2.92,1.964,2.144,2.712,5.181,3.138,7.973.385,2.585.9,5.73.132,8.279-1.167,3.9-5.652,4.74-9.022,2.942a7.3,7.3,0,0,1-2.47-2.2" transform="translate(458.259 238.784)" fill="#231f20"/><path d="M15.156,11.995C16,8.038,14.007,3.115,11.772.165c-.331,2.531.271,5.582-2.481,7.118a5.375,5.375,0,0,1-6.75-1.328A7.673,7.673,0,0,1,1.053,2.9C.808,1.937.629.96.48,0-.446,2.71.12,5.733.893,8.411c.714,2.474,1.555,5.5,3.325,7.487,2.7,3.036,7.2,2.009,9.569-.942a7.058,7.058,0,0,0,1.369-2.961" transform="translate(445.268 245.877)" fill="#231f20"/><path d="M9.669.967C7.928-.51,4.9.042,2.878.437.97.807.209,2.248.007,4.513-.13,6.041,1.793,6.186,1.93,4.654c.019-.2.038-.381.061-.541a1.293,1.293,0,0,0,.895,1.063C4.794,5.609,7.224,6.4,9.158,5.5A2.754,2.754,0,0,0,9.669.967" transform="translate(479.519 125.303)" fill="#feb187"/><path d="M53.886,20.082C57.723,10.235,59.72.462,45.566.021a4.812,4.812,0,0,0-.7-.015c-2.145-.022-4.4.157-6.534.277-6.1.329-12.3.064-18.414.348C18.488.7,17.066.758,15.747.937,7.142,2.119,2.119,7.778,1.012,16.11c-.656,4.922-2.067,17.241.337,21.605,3.175,5.748,4.819-11.982,35.012-4.439,1.534.385,10.116,7.794,10.09,6.829-.111-3.874,4.853-13.4,7.434-20.023" transform="translate(421.646 132.395)" fill="#262262"/><path d="M12.992,65.843l-2.056.355L0,.359,2.059,0Z" transform="translate(224.405 170.223)" fill="#231f20"/><path d="M0,65.843l2.055.355L12.992.359,10.933,0Z" transform="translate(165.351 170.223)" fill="#231f20"/><path d="M25.8,104.025h8.451L14.9,0H0Z" transform="translate(474.795 143.034)" fill="#7f2f24"/><path d="M77.951,10.639c0,5.875-17.453,10.639-38.974,10.639S0,16.514,0,10.639,17.453,0,38.978,0,77.951,4.764,77.951,10.639" transform="translate(162.989 156.037)" fill="#efaf18"/><path d="M77.951,10.639c0,5.875-17.453,10.639-38.974,10.639S0,16.514,0,10.639,17.453,0,38.978,0,77.951,4.764,77.951,10.639" transform="translate(162.989 150.127)" fill="#fcd975"/><path d="M8.448,104.025H0L19.348,0h14.9Z" transform="translate(146.454 143.034)" fill="#7f2f24"/><path d="M22.308,34.6S23.738,5.815,17.213.966,0,11.1,0,11.1,2.069,36.71,6.381,40.5,22.308,34.6,22.308,34.6" transform="translate(199.603 134.76)" fill="#262262"/><path d="M5.072,50.83c12.07-1.644,24.177-3.02,36.265-4.53-.045-.213-1.027-6.668-1.075-6.881a7.261,7.261,0,0,0-.342-1.129c.1-1.323.811-11.769-.037-15.716C38.272,15.07,37.639,8.1,33.216,4.067,28.4-.332,19.977-.889,15.077,1.092,9.775,3.245,3.7,5.409,1.069,12.786-1.409,19.723.913,30.835,3.063,38.381c.554,1.951,1.823,10.278,2.009,12.45" transform="translate(173.619 9.457)" fill="#66240e"/><path d="M13.316,14.384C10.6,16.777,4.643,17.751,2.1,14.32A2.21,2.21,0,0,1,.083,11.365c.05-.186.084-.369.13-.552a2.79,2.79,0,0,1,.194-.946C.605,8.754.746,7.626.879,6.5c.061-.455.114-.91.175-1.361,0-.3.008-.595,0-.888a2.632,2.632,0,0,1,.4-1.562c.023-.093.038-.186.057-.276.053-.24.11-.476.171-.713.655-2.507,3.28-2.02,3.767.014A2.314,2.314,0,0,1,6.532,3.141c.038.122.069.247.1.369A8.308,8.308,0,0,1,6.859,5.2a.051.051,0,0,0,.023,0c.015.007.034.018.053.029a1.693,1.693,0,0,1,2.24.247,1.657,1.657,0,0,1,.891-.111,2.2,2.2,0,0,1,.194-.33,2.617,2.617,0,0,1,.244-.695c.83-1.64,3.047-1.035,3.5.759a2.878,2.878,0,0,1,.027,1.282,13.067,13.067,0,0,0-.19,1.637c.034.437.072.874.107,1.311v0c.069.788.126,1.569.152,2.36a2.782,2.782,0,0,1-.788,2.686" transform="translate(187.792 48.466)" fill="#feb187"/><path d="M12.938,3.984a14.617,14.617,0,0,0-.184,1.642c.036.438.072.877.1,1.315v0S8.649,14.891,0,7.476C.054,7.02.553,3.186.615,2.734c0-.3.007-.6,0-.891A2.783,2.783,0,0,1,.994.277C1.016.183,1.034.09,1.052,0L5.908,1.1l3.674.837,3.327.762a3.041,3.041,0,0,1,.029,1.286" transform="translate(187.792 50.83)" fill="#f19c80"/><path d="M25.709,1.428A7.232,7.232,0,0,0,23.222.167c-1.947-.589-4.761.581-6.741.453C13.091.4,8.268-.418,5.884,2.58,3.667,5.366,4.67,9.129,4.644,12.548c-.007.713-.058,1.422-.124,2.128-.04-.026-.077-.059-.109-.08a3.744,3.744,0,0,0-2.745-.713A1.914,1.914,0,0,0,.01,15.451c-.157,2.739,1.484,4.988,3.668,6.483a.315.315,0,0,1,.058.037,13.946,13.946,0,0,0,.379,3.485c1.017,4.077,4.036,6.692,7.167,9.233,2.891,2.344,5.975,2.457,9.351,1,3.427-1.477,4.827-4.34,5.829-7.763,1.094-3.722,2.074-7.364,1.743-11.266-.412-4.786,1.6-11.939-2.5-15.233" transform="translate(180.705 20.096)" fill="#feb187"/><path d="M44.056,13.3a36.467,36.467,0,0,1,.825-9.454,24.55,24.55,0,0,0-4.05-1.088c-.661-.123-1.325-.243-1.986-.355-1.441-.254-2.855-.5-4.158-.856-2-.551-3.68-1-5.64-.047a10.864,10.864,0,0,1-3.4,1.356c-2.2.236-3.318-1.251-5.02-2.187A5.488,5.488,0,0,0,18.51.015C16.9-.16,14.953,1.273,13.486,1.821c-1.885.7-3.8,1.331-5.722,1.94a.753.753,0,0,1-.1.029c-.732.239-1.474.471-2.206.7l-2.146.685a7.826,7.826,0,0,0-.862.326A3.677,3.677,0,0,0,.119,8.493a7.986,7.986,0,0,0-.093,2.042,2.282,2.282,0,0,1,.56.486,12,12,0,0,1,2.352,4.845,2.67,2.67,0,0,0,.06.961A37.7,37.7,0,0,1,3.96,21.4a2.735,2.735,0,0,0,1.56,2.317,2.946,2.946,0,0,0,1.068.236,26.18,26.18,0,0,0,3.158-.069c1.489-.116,2.971-.319,4.461-.519.366-.047.732-.091,1.1-.127.664-.073,1.329-.127,1.993-.17a1.7,1.7,0,0,0,.579.83c4.946,4.091,12.1,4.678,16.883.007a1.872,1.872,0,0,0,.538-.921c.687-.033,1.374-.073,2.057-.127a2.381,2.381,0,0,0,2.964.265,9.314,9.314,0,0,0,3.942-5.389,7.113,7.113,0,0,0,.067-3.79,2.786,2.786,0,0,0-.269-.638" transform="translate(171.257 61.469)" fill="#feb187"/><path d="M15.146,63.351c1.629-5.055,3.987-10.545,3.567-15.537a21.173,21.173,0,0,0-1.341-5.509c-.306-.842-.641-1.68-.976-2.522q-.348.9-.711,1.8c-1.426,3.556-5.365,15.943-6.153,19.735-.122.583-3.832.3-6.157-.1a14.059,14.059,0,0,1-2.259-.513c-2.178-.746-.6-11.642.018-13.864.73-2.6,1.651-5.191,2.148-7.794C4.41,33.178,4.564,27.348,5,21.4,5.4,15.854,6.1,9.559,9.365,4.859c2.063-2.983,16.216-.93,27.844-1.466,8.824-.406,15.836-3.8,17.1-3.353,4.2,1.477,6.289,5.044,7.9,9a115.753,115.753,0,0,1,3.659,12c1.61,5.6,1.662,11.586,3.611,17.073.906,2.548,10.873,21.2,9.521,23.733a38.667,38.667,0,0,1-4.127,6.624c-1.275,1.5-13.25-16.135-14.226-17.435a26.605,26.605,0,0,1-3.648-7.074c-.409-1.137-.777-2.293-1.127-3.452a20.8,20.8,0,0,0-1.061,2.027,9.165,9.165,0,0,0-.829,3.641c-.037,3.98,1.673,7.776,2.727,11.553,1.654,5.926,4.37,13.189,4.3,19.406a2.909,2.909,0,0,1-.2,1.215c-.1.214-.214.421-.332.628-1.861,3.076-5.527,3.951-8.765,4.8-10.011,2.614-21.1,5.52-31.315,2.26-3.618-1.156-7.5-2.991-8.508-7.011-.855-3.445,1.522-9.164,2.347-12.553.243-1.012.553-2.053.9-3.113" transform="translate(160.627 63.833)" fill="#8fc9d8"/><path d="M0,16.437a3.36,3.36,0,0,1,2.373,1.054,20.757,20.757,0,0,1,1.06-2.023c.35,1.157.717,2.314,1.126,3.446C6.181,14.609,9.253,4.559,4.7,0,9.021,10.467,0,16.437,0,16.437" transform="translate(212.595 88.658)" fill="#72aab7"/><path d="M5.905,3.334S2.851,1.837,0,.213c.331.809.662,1.614.967,2.422a19.2,19.2,0,0,0,4.938.7" transform="translate(177.162 102.843)" fill="#72aab7"/><path d="M.968,14.073a3.941,3.941,0,0,0,1.364,1.295c.23-.592.461-1.185.68-1.781C.3,11.952,2.807.472,2.91,0,2.775.413-.662,11.363.968,14.073" transform="translate(173.619 89.84)" fill="#72aab7"/><path d="M2.332,11.075A31.029,31.029,0,0,1,6.072,1.79C7.107.313,8.225-.339,9.264.954,9.114.773,11.3-.306,11.827.084c.938.689.867,3.58.972,4.866a59.924,59.924,0,0,1-.154,11.234,50.04,50.04,0,0,1-.814,6.184,4.256,4.256,0,0,1-1.4,3.157A1.952,1.952,0,0,1,9.5,25.9a2.259,2.259,0,0,1-3.5.74,1.933,1.933,0,0,1-1.8.133A3.18,3.18,0,0,1,2.83,25.315,1.8,1.8,0,0,1,1.409,25.3,2.654,2.654,0,0,1,.077,23.3C-.231,21.27.456,19.307.9,17.359c.48-2.107.908-4.214,1.433-6.284" transform="translate(191.335 231.692)" fill="#feb187"/><path d="M.864,16.934a13.362,13.362,0,0,1,.256-1.317A62.643,62.643,0,0,1,5.094,4.357C5.647,3.168,6.6.409,7.723.02c.634-.22,2.3,1.405,2.095,1.541,1.427-.939,2.243-.007,2.692,1.677.779,2.953.426,8.222.234,9.836-.067.569-.152,1.148-.252,1.732a39.542,39.542,0,0,1-.934,4.487c-.378,1.541-.549,3.115-.9,4.659-.222.972-.519,2.223-1.472,2.748a1.639,1.639,0,0,1-1.995-.286,2.044,2.044,0,0,1-1.887.756A1.949,1.949,0,0,1,4,26.5a3.065,3.065,0,0,1-1.468-.983,3.493,3.493,0,0,1-1.283-1.86C.241,23.24-.085,21.868.018,20.588a13.408,13.408,0,0,1,.845-3.654" transform="translate(178.343 226.963)" fill="#feb187"/><path d="M4.455,24.113C5.221,15.764,4.13,1.8,16.041.573,18.656.3,21.139-.544,24.153.53c1.513,2.579,0,10.46-.7,13.53-1.968,8.68-4.01,17.3-5.66,26.061a57.451,57.451,0,0,1-2.645,8.995C14.14,51.9,14.88,75.183,2.21,66.72-2.644,63.481,2,53.3,2.084,47.84,2.213,39.923,3.73,32,4.455,24.113" transform="translate(180.705 164.312)" fill="#262262"/><path d="M0,65.435c.578-5.2,3.839-21.937,4.446-25.048C6.169,31.566,7.477,22.723,8.874,13.85,10.038,6.47,10.968.44,19.945,0,22.294-.113,25.392,1.984,26.6,3.26s.222,8.876-.408,12.555a131.545,131.545,0,0,1-3.5,14.992c-2.123,7.2-6.506,36.287-11.675,39.973C4.228,75.616-.029,65.711,0,65.435" transform="translate(194.878 166.676)" fill="#262262"/><path d="M11.887,16.991c2.411-3.338,2.676-8.7,1.89-12.334-1.358,2.221-2.088,5.29-5.208,5.621A5.175,5.175,0,0,1,3.038,6.353,7.965,7.965,0,0,1,2.972,2.92C3.152,1.93,3.4.95,3.666,0,1.7,2.144.953,5.181.527,7.973.142,10.558-.368,13.7.4,16.252c1.167,3.9,5.652,4.74,9.018,2.942a7.273,7.273,0,0,0,2.474-2.2" transform="translate(175.981 238.784)" fill="#231f20"/><path d="M.2,11.995C-.646,8.038,1.347,3.115,3.582.165,3.913,2.7,3.311,5.747,6.063,7.283a5.376,5.376,0,0,0,6.75-1.328A7.731,7.731,0,0,0,14.3,2.9c.245-.963.424-1.941.573-2.9.926,2.71.361,5.733-.413,8.411-.714,2.474-1.555,5.5-3.325,7.487-2.7,3.036-7.2,2.009-9.569-.942A7.058,7.058,0,0,1,.2,11.995" transform="translate(188.973 245.877)" fill="#231f20"/><path d="M13.892,10.639h0a1.28,1.28,0,0,1-1.128-.648c-.071-.126-.14-.253-.21-.381s-.128-.234-.192-.349a.793.793,0,0,1-.244.189,7.772,7.772,0,0,1-3.32.677,14.323,14.323,0,0,1-3.91-.611,17.368,17.368,0,0,1-3.4-1.375A4.244,4.244,0,0,1,0,6.826,5.691,5.691,0,0,0,.11,5.62C.1,5.248.1,4.9.113,4.565.561,2.59,2.773.877,4.654.361A11.709,11.709,0,0,1,7.8,0c.634,0,1.266.028,1.967.061a11.912,11.912,0,0,1,1.863.2,3.79,3.79,0,0,1,3.192,2.9,12.652,12.652,0,0,1,.154,6.672A1.09,1.09,0,0,1,13.892,10.639ZM9.619,5.55a.938.938,0,0,0-.325.06c-.338.115-.674.219-1,.308l0,0a1.72,1.72,0,0,1,.454.64,1.44,1.44,0,0,0,.528.679,6.081,6.081,0,0,0,1.695.4c.206.031.4.06.585.093-.372-.734-.7-1.448-.972-2.12-.371-.039-.672-.06-.946-.067Z" transform="translate(230.311 125.303)" fill="#feb187"/><path d="M13.892,10.639h0a1.286,1.286,0,0,1-1.131-.651l-.136-.25c-.088-.162-.176-.321-.261-.48a.8.8,0,0,1-.248.189,7.752,7.752,0,0,1-3.316.677,14.322,14.322,0,0,1-3.91-.611,17.143,17.143,0,0,1-3.4-1.375A4.267,4.267,0,0,1,0,6.826,5.752,5.752,0,0,0,.11,5.619C.1,5.295.1,4.95.113,4.566.56,2.594,2.771.879,4.65.36A11.716,11.716,0,0,1,7.8,0c.659,0,1.326.03,1.971.059a11.68,11.68,0,0,1,1.859.2,3.8,3.8,0,0,1,3.2,2.894,12.6,12.6,0,0,1,.149,6.671A1.086,1.086,0,0,1,13.892,10.639ZM9.618,5.548a.942.942,0,0,0-.328.06c-.354.125-.717.231-.994.311a1.691,1.691,0,0,1,.458.641,1.439,1.439,0,0,0,.528.679,5.9,5.9,0,0,0,1.686.4c.21.031.407.06.593.093-.385-.76-.7-1.454-.972-2.12-.371-.039-.672-.06-.946-.067Z" transform="translate(187.792 122.939)" fill="#feb187"/><path d="M.573,0l32.5,9.057-1.4,4.738S3.556,15.35,1.238,12.251.573,0,.573,0" transform="translate(160.627 114.664)" fill="#8fc9d8"/><path d="M.074,10.639,24.8,8.924S24.975,0,17.412,0-1,3.287.074,10.639" transform="translate(184.249 16.549)" fill="#66240e"/><path d="M14.042,35.463S-4.017,15.992.825,4.919s28.554,0,28.554,0L31.889,30.93Z" transform="translate(173.619 137.124)" fill="#262262"/><path d="M17.349,3.566C13.681-2.991,4.1.482,1.267,6.049a13.434,13.434,0,0,0,.667,12.618c2.014,3.22,5.48,6.714,3.653,10.809A2.212,2.212,0,0,0,6.9,29.426c3.882-1.432,3.58-5.813,2.928-9.146-.685-3.505-1.617-13.4,4.957-15.823,1.4-.516-.5,3.927.667,4.264,3.292.941,4.81-3.9,1.9-5.154" transform="translate(298.814 54.377)" fill="#4c2a1b"/><path d="M16.43,23.278c-3.462-2.563-5.993-5.705-5.7-10.06a19.828,19.828,0,0,1,.837-4.668,6.687,6.687,0,0,1,.966-2.057,1.082,1.082,0,0,1,.883-.528c3.034-.586,2.451-4.453.034-5.217L13.422.741C6.012-2.569,1.073,5.94.126,11.864c-1.216,7.653,6.588,16.847,14.823,16.5,2.993-.127,3.671-3.463,1.481-5.083" transform="translate(309.443 56.741)" fill="#4c2a1b"/><path d="M8.267,7.148a13.989,13.989,0,0,0-.954-5.473C6.869.747,6.232.252,5.324.815c.127-.08-1.147-.943-1.568-.8C3.019.264,2.586,1.831,2.3,2.508A27.878,27.878,0,0,0,.547,8.567,22.675,22.675,0,0,0,.06,12a2,2,0,0,0,.413,1.879,1.4,1.4,0,0,0,.552.323,1.647,1.647,0,0,0,2.213.848,1.522,1.522,0,0,0,1.182.3,2.348,2.348,0,0,0,1.159-.609,1.451,1.451,0,0,0,.95.175,1.716,1.716,0,0,0,1.213-.905,7.186,7.186,0,0,0,.44-3.3c.027-1.194.093-2.381.085-3.564" transform="translate(316.53 204.504)" fill="#feb187"/><path d="M6.94,9.344a5.248,5.248,0,0,0-.007-.7A27.53,27.53,0,0,0,5.764,2.5C5.557,1.834,5.284.331,4.636.028,4.27-.144,3.063.538,3.17.627,2.4.013,1.79.413,1.325,1.238A15.229,15.229,0,0,0,.066,6.262c-.024.3-.038.6-.045.914A16.816,16.816,0,0,0,.09,9.566c.055.825-.017,1.646.024,2.471a1.827,1.827,0,0,0,.593,1.546,1.188,1.188,0,0,0,1.262.039,1.3,1.3,0,0,0,1.076.561,1.383,1.383,0,0,0,.88-.221,2.114,2.114,0,0,0,1.014-.368,2.056,2.056,0,0,0,1-.832A1.556,1.556,0,0,0,7.047,11.3,5.755,5.755,0,0,0,6.94,9.344" transform="translate(334.246 205.686)" fill="#feb187"/><path d="M7.465,0A38.511,38.511,0,0,0,3.892,1.732,6.264,6.264,0,0,0,1,5.683,1.522,1.522,0,0,0,.806,6.4c-.1.427-.185.87-.264,1.312a45.071,45.071,0,0,0-.2,12.608c0,.364,0,.729.008,1.1.162,9.854.385,19.715.816,29.551.215,4.836.48,9.642.5,14.485a29.323,29.323,0,0,0,.57,5.07c.306,2.8.684,5.579.948,8.382a1.709,1.709,0,0,0,.045.509c.06.654.11,1.308.155,1.966a1.681,1.681,0,0,0,1.809,1.368,1.865,1.865,0,0,0,1.741-1.576c.064-.3.125-.6.185-.907A1.7,1.7,0,0,0,7.7,79.2c1.065-7.014,2.678-13.969,3.369-21.016a64,64,0,0,0,.162-10.924c-.245-3.4-1.129-6.843-.884-10.278a22.79,22.79,0,0,1,.419-3c.638-1.494,1.016-3.081,1.59-4.553C13.462,26.6,14.274,23.689,15.1,20.8c.087-.32.17-.643.257-.966A171.749,171.749,0,0,1,7.465,0" transform="translate(331.884 126.485)" fill="#feb187"/><path d="M15.347,7.373c0-.048,0-.092.008-.136a5.6,5.6,0,0,0-2.505-3.369c-1.5-.91-3.218-1.622-4.808-2.385A16.492,16.492,0,0,0,4,0,79.959,79.959,0,0,0,.311,9.406,1.589,1.589,0,0,1,0,10c.015.257.03.514.049.767.218,3.171.473,6.323,1.005,9.461s1.279,6.2,2.1,9.259a38.839,38.839,0,0,1,1.71,9.164c.079,3.395-.949,6.789-1.35,10.151a63.342,63.342,0,0,0-.349,10.8C3.518,66.572,4.782,73.457,5.5,80.4a1.6,1.6,0,0,0,.521,1.061c.041.3.086.6.135.9a1.774,1.774,0,0,0,3.484.231c.068-.65.154-1.3.24-1.941a1.792,1.792,0,0,0,.071-.5c.386-2.771.885-5.52,1.316-8.276a29.18,29.18,0,0,0,.8-5.006c.244-4.789.728-9.538,1.166-14.313.611-6.716,1.118-13.439,1.579-20.17-.611-8.309.521-16.687.536-25.007" transform="translate(314.168 125.303)" fill="#feb187"/><path d="M4.565,1.089c-.69.614-2.592.255-3.374-.1C.3.585-.5,1.663.385,2.067c1.4.638,4.111.968,5.312-.1.675-.6-.449-1.489-1.132-.883" transform="translate(318.892 204.504)" fill="#2d282d"/><path d="M4.5.951a3.436,3.436,0,0,1-3.353.192C.3.685-.48,1.774.358,2.224a5.4,5.4,0,0,0,5.273-.4c.8-.5-.338-1.372-1.129-.876" transform="translate(334.246 204.504)" fill="#2d282d"/><path d="M22.333,19.5c-.347-2.7-1.379-5.268-1.843-7.951a27.971,27.971,0,0,0-.966-4.308c-.443-1.306-1.137-2.526-1.533-3.847a2.346,2.346,0,0,0-2.6-1.912,2.013,2.013,0,0,0-.68.249A6.1,6.1,0,0,0,10.574.009a10.228,10.228,0,0,0-9.766,6.7,14.383,14.383,0,0,0-.066,9.316,4.078,4.078,0,0,1,.995,2.366A51.031,51.031,0,0,0,3.01,25.025,25.328,25.328,0,0,0,7.194,27.8c3.032,1.745,6.774,3.847,10.34,2.511,4.089-1.533,5.3-6.868,4.8-10.812" transform="translate(317.711 60.287)" fill="#feb187"/><path d="M19.314,1.541C15.357-.543,11.34-.273,7.161.932A2.579,2.579,0,0,0,5.214,4.116,2.451,2.451,0,0,0,3.23,5.437c-1.2,2.68-.751,4.783-.317,7.572a1.872,1.872,0,0,1-.132,1.475c-.449.687-1.471,1.25-2.029,1.873-2.414,2.7,1.543,6.735,3.972,4.017C6.108,18.825,7.915,17.86,8.47,15.7a9.041,9.041,0,0,0-.026-3.855c-.117-.695-.438-1.588-.5-2.406a37.786,37.786,0,0,1,1.822,4.212,2.838,2.838,0,0,0,3.187,1.321c2.95-1.032,5.8-2.962,8.981-3.093a2.876,2.876,0,0,0,2.75-2.046c.754-3.807-2.244-6.645-5.371-8.293" transform="translate(314.168 55.559)" fill="#4c2a1b"/><path d="M4.724,1.258S-.149-1.55,0,1.224,4.679,5.911,4.679,5.911Z" transform="translate(316.53 75.654)" fill="#feb187"/><path d="M11.855,11.847A32.371,32.371,0,0,0,9.1,2.719a2.583,2.583,0,0,0-3.693-1.1c-.04-.075-.077-.149-.118-.22C3.5-1.7-1.407.869.389,4c.118.205.206.414.305.63,0,.007,0,.011.007.019.044.138.088.276.132.418q.3,1.018.592,2.044c.427,1.5.872,3,1.431,4.45.379,2.421.739,5.17,2.211,6.99s3.675,1.735,5.746,1.242a2.832,2.832,0,0,0,2.178-2.581,21.375,21.375,0,0,0-1.137-5.364" transform="translate(318.892 78.019)" fill="#feb187"/><path d="M29.126,0c-1.074,3.134-4.533,12.75-4.952,14.762-.37,1.771-.526,3.83-1.6,5.331-3.389,4.745-7.463,9.242-11.03,13.925A15.807,15.807,0,0,1,8.159,37.6C6.074,39.04,3.048,39.284,0,39.225c.152.274.3.541.459.811.593,1,1.237,1.974,1.911,2.923a47.678,47.678,0,0,0,4.444,5.279,43.07,43.07,0,0,0,4.074,3.775,12.878,12.878,0,0,1,.833-1.189C14.315,42.037,23.37,32.431,27.8,24.7a28.208,28.208,0,0,0,3.107-9.979c.622-3.867,1.83-7.635,2.163-11.55A41.294,41.294,0,0,0,29.126,0" transform="translate(329.522 53.195)" fill="#feb187"/><path d="M47.243,59.154C37.912,71.768,0,66.119,0,66.119s5.645-15.64,6.227-39.074v0c.015-.591.026-1.179.037-1.774.052-2.854.048-5.7-.026-8.5C9.754,1.477,6.109,1.4,6.109,1.4S5.766.04,11.061,0c.394,0,.817.007,1.274.037.376.018.781.048,1.208.1,6.378,8.577,9.913.209,9.913.209A1.235,1.235,0,0,1,23.765.3c.2-.026.534-.059,1.079-.11C25.338.14,26.011.077,26.921,0c2.239,10.343,6.4,10.711,6.4,10.711s-.423,3.993.821,11.926c.1.61.2,1.245.32,1.9,1.664,9.388,3.892,15.805,12.781,34.618" transform="translate(308.262 92.204)" fill="#da1c5c"/><path d="M4.049.847A20.282,20.282,0,0,1,.359.537a4.319,4.319,0,0,0-.2.568A5.242,5.242,0,0,0,1.6,6.221c2.574,2.127,6,.087,6.6-3.184A3.642,3.642,0,0,0,7.43,0,9.643,9.643,0,0,1,4.049.847" transform="translate(333.065 213.96)" fill="#2d282d"/><path d="M4.222.847A20.27,20.27,0,0,0,7.908.537a4.319,4.319,0,0,1,.2.568A5.242,5.242,0,0,1,6.669,6.221C4.1,8.348.667,6.309.067,3.037A3.631,3.631,0,0,1,.841,0,9.6,9.6,0,0,0,4.222.847" transform="translate(316.53 213.96)" fill="#2d282d"/><path d="M18.469,7.123c1.792,2.02,8.659,5.635,8.7,11.638.038,6.513-11.579,4.708-16.121,4.471s-4.887-3.715-6.8-7.4S.4,12.768.046,9.795,1.512.165,1.512.165L14.549,0S16.676,5.1,18.469,7.123Z" transform="translate(161.559 236.154) rotate(-19)" fill="#163342"/><path d="M18.467,7.124c1.792,2.021,8.66,5.637,8.7,11.641.039,6.513-11.577,4.706-16.119,4.469s-4.887-3.716-6.8-7.4S.405,12.767.046,9.793,1.511.163,1.511.163L14.546,0S16.674,5.1,18.467,7.124Z" transform="matrix(0.995, -0.105, 0.105, 0.995, 145.293, 249.726)" fill="#163342"/><path d="M0,14.185H414.559V0H0Z" transform="translate(120.47 143.034)" fill="#7f2f24"/><g transform="translate(67.322)"><path d="M5.481.678C7.5-1.378,10.617,1.7,8.808,3.8a2.424,2.424,0,0,1,2.164,2.863A50.56,50.56,0,0,1,9.49,12.19,2.225,2.225,0,0,1,11.9,14.412c.065,2.9-.892,5.527-.087,8.4a37.3,37.3,0,0,0,3.6,7.952,2.8,2.8,0,0,1,.181.4,2.473,2.473,0,0,1,1.519,1.094,2.387,2.387,0,0,1-.812,3.158c-2.86,2.159-7.007-1.82-8.914-3.666a14.493,14.493,0,0,1-4.256-9.293,2.192,2.192,0,0,1-.569-.5,3.491,3.491,0,0,1-.421-.475C-2.179,15.34.594,5.642,5.481.678" transform="translate(12.883 8.798)" fill="#e8734d"/><path d="M9.879,29.171A1.956,1.956,0,0,1,8.53,30.81C3.723,26.263,1.3,19.395,0,12.751c.022-.081.044-.158.065-.24a16.449,16.449,0,0,1,5.887-8.6c3.375-2.517,7.562-2.694,11.5-2.8.924-.029,1.849-.041,2.77-.026C21.051.853,21.885.661,22.726.5c2.9-.549,6.087-.877,8.907.258,2.541,1.017,4.473,3.652,5.26,6.6a2.454,2.454,0,0,1,2.926,2.955,10.478,10.478,0,0,1-.446,1.4c-.718,3.512-1.265,6.957-4.147,9.389C32.13,23.71,28,23.924,24.147,23.89c-2.994-.022-6.156-.269-9.11.335-2.875.59-4.6,1.931-5.159,4.945" transform="translate(16.884 0)" fill="#e8734d"/><path d="M2.958,9.351A119.489,119.489,0,0,0,21.134,0C32.791,25.054,46.271,53.553,53.3,66.129c.8,1.433-11.923,9.86-17.06,10.195-2.57.169-3.876-3.011-4.9-5.251C29.7,67.469,14.513,37.865,0,10.519.993,10.139,1.979,9.753,2.958,9.351Z" transform="matrix(0.998, 0.07, -0.07, 0.998, 48.333, 183.45)" fill="#1d3b54"/><path d="M2.958,9.352A119.506,119.506,0,0,0,21.135,0C32.79,25.053,46.268,53.552,53.294,66.128c.8,1.433-11.923,9.861-17.06,10.2-2.57.169-3.875-3.011-4.9-5.251C29.7,67.469,14.512,37.865,0,10.52.993,10.141,1.979,9.754,2.958,9.352Z" transform="translate(60.235 169.04)" fill="#1d3b54"/><path d="M41.222,44.436C39.8,37.645,1.081,34.207.087,28.842a3.82,3.82,0,0,1,1.675-4.2A105.1,105.1,0,0,1,.878,8.447C1,4.412,7.2,4.224,7.077,8.284q-.054,1.835-.025,3.655c0-.018.007-.041.007-.059a27.272,27.272,0,0,0,.493-6.758,2.9,2.9,0,0,1,.526-1.964C8.124,1.313,9.553-.493,11.8.174A47.637,47.637,0,0,1,16.4,1.8a3.229,3.229,0,0,1,5.92.31c.033.092.065.188.094.291,1.048,3.117,1.167,6.489,1.381,9.743C35.32,21.579,57.39,20.9,58.166,27.663c2.581,22.6-10.64,15.775-16.944,16.773" transform="translate(27.789 136.485)" fill="#1d3b54"/><path d="M31.8,21.475c-.247,3.35,7.174,8.1,4.582,9.717C36.4,33.056,60.022,43.366,59.957,48.4,58.05,58.92,41,58.334,38.822,58.92-1.776,47.419.751,35.669.272,32.75c-.975-5.977.906-12.123,1.918-18.1.424-2.52,1.019-5.807,2.726-7.7-.007-.133-.007-.265-.015-.394-.015-.391-.033-.777-.058-1.161A3.074,3.074,0,0,1,5.4,3.308C5.445,1.352,6.964-.557,9.339.151A47.546,47.546,0,0,1,25.619,8.522c.522-3.674,6.431-3.63,6.522.453a51.082,51.082,0,0,1-.587,9.352c-.011,2.484.431.674.25,3.147" transform="translate(8.665 135.582)" fill="#1d3b54"/><path d="M2.454,0,6.438.663,4.811,10.41,0,9.289Z" transform="translate(95.702 124.717)" fill="#8fc9d8"/><path d="M0,14.694c.112,2.24.823,4.112,2.643,5.067a17.194,17.194,0,0,0,7.022,2.134c3.777.122,9.98-.951,9.842-5.435-.018-.534-.065-2.517-.152-4.916-.073-2-.167-4.289-.29-6.279C18.891,2.571,18.666.419,18.38.3a4.023,4.023,0,0,0-4.408.9,3.991,3.991,0,0,0-.874.24,3.367,3.367,0,0,0-1.4,1.083l-.065,0a4.025,4.025,0,0,0-1.276-.265,3.666,3.666,0,0,0-3.038-.866A3.964,3.964,0,0,0,4,1.421C4.216,1.311,3.933.5,3.538.168,3.194,2.033,2.813,3.9,2.393,5.755c-.682,3.01-1.468,6-2.393,8.939" transform="translate(25.694 47.27)" fill="#e59f7d"/><path d="M0,5.59c6.123,10.244,13.874,7.48,16.966,5.785-.073-2-.17-4.285-.294-6.275-.638-.438-3.049-2.086-5.967-3.829a3.36,3.36,0,0,0-1.4,1.083l-.065,0a4.025,4.025,0,0,0-1.276-.265,3.68,3.68,0,0,0-3.038-.87,3.964,3.964,0,0,0-3.317.033C1.823,1.146,1.541.335,1.146,0,.8,1.868.421,3.736,0,5.59" transform="translate(28.085 47.435)" fill="#e59f7d"/><path d="M0,16.46s31.97,7.908,43.049-1.614C48.443,10.211,21.82,0,21.82,0L2,5.181Z" transform="translate(8.853 145.051)" fill="#163342"/><path d="M38.7.005a5.541,5.541,0,0,0-.914.405,1.655,1.655,0,0,0-.9,1.36c-1.051,1.555-3.3,3.335-8.117,3.6C20,5.846,17.358.775,17.358.775l-.2.129A1.674,1.674,0,0,0,15.73.79C11.836,2.095,7.465,2.574,3.575,4.2c-.065.026-.127.052-.192.081C2.375,4.574,1.374,4.921.377,5.3c-2.171.814,5.742,33.318,5.648,35-.268,4.879-.75,9.75-1.156,14.618-.453,5.505-.682,11.047-1.276,16.541-.131,1.19-.25,2.384-.276,3.578-.522,2.222-.576,7.989.1,10.262.587,1.993,1.628.5,3.009,1.975,1.276,1.363,15.494,3.069,21.737,3.493,6.166.416,12.7,1.349,16.995-3.327,2.472-2.7,4.318-3.044,5.122-6.629C51.26,76.425,48.215,48.4,48.2,46.272c-.025-4.138-.315-8.659.254-12.886C48.425,22.847,54.41-.4,38.7.005" transform="translate(8.337 61.188)" fill="#8fc9d8"/><path d="M17.057,0S33.929,36.465,34,39.509c.065,2.66,3.444,40.865,4.281,50.331.1,1.128-.79,8.446-1.9,8.405-6.3-.225-26.732.136-30.763-3.32,1.077-17.591,2.2-57.778,2.2-57.778S-3.24,4.916.947,3.611C12.569,0,17.057,0,17.057,0" transform="translate(3.39 62.986)" fill="#1d3b54"/><path d="M20.948,35.676,8.861,0,.752,1.013A1.019,1.019,0,0,0,.107,2.45L22.851,48.341l-.692-7.171a13.6,13.6,0,0,0-1.211-5.494" transform="translate(15.206 61.977)" fill="#163342"/><path d="M15.4,8.037,2.657,0,0,3.519,11.619,13.925Z" transform="translate(24.067 58.458)" fill="#72aab7"/><path d="M0,7.7l3.187,5.052L7.569,2.4,6.177,0Z" transform="translate(39.47 58.797)" fill="#72aab7"/><path d="M5.018,25.024c-.547-1.6-1.686-1.245-2.6-2.126C.668,21.191-.648,17.717.338,15.369c.787-1.879,2.472-3.283,4.571-2.911.109.018.214.044.323.066a15.182,15.182,0,0,0-.685-2.94C4.514,8.457,4.5,7.34,4.5,6.231c.221-.49.446-.984.714-1.456C6.653,2.218,10.507,1.142,13.262.9c6.9-.586,14.283,2.952,20.725-.9.112.339.214.682.3,1.028.9,5.969-.562,12.418-1.153,18.288-.16,1.548-.25,3.1-.352,4.632a43.906,43.906,0,0,0-.417,4.414v.022a20.312,20.312,0,0,1-2.6,8,11.892,11.892,0,0,1-1.2,3.173c-1.57,2.708-4.749,2.977-7.529,3.047-2.668.059-5.492.033-7.548-1.957a43.774,43.774,0,0,1-5.311-6.71c-1.838-2.7-2.1-5.826-3.158-8.914" transform="translate(20.005 14.036)" fill="#eea987"/><path d="M23.114,4.72,16.2,13.995,0,0,20.678,2.716Z" transform="translate(24.371 164.057)" fill="#163342"/><path d="M1.414,0,5.2,85.823l-1.577.509L0,1.01Z" transform="translate(38.057 66.494)" fill="#72aab7"/><path d="M.3,4.049a.8.8,0,0,1,.214-.663C-.468,2.155-.141.478,2.317.139,5.8-.34,9.94.5,13.326,1.4a14.927,14.927,0,0,1,3.118,1.2A16.387,16.387,0,0,1,23.4,6.263c2.128,2.008,2.1,4.234,3.161,6.577a6.42,6.42,0,0,1,.475.932c.337.822-.761,1.478-1.66,1.382a5.287,5.287,0,0,1-.424.608c-.4.321-.344.236-.935.3a8.22,8.22,0,0,1-3.1-.567c1.689.579-.718,2.981-2.07,1.385-2.306-2.719-10.179-5.262-10.2-5.358A15.555,15.555,0,0,1,4.474,9.565c-.029-.018-.047-.037-.073-.055A12.321,12.321,0,0,1,1.65,8.021,4.226,4.226,0,0,1,.138,6.274C-.185,5.453.392,4.823.3,4.049" transform="translate(44.227 166.563)" fill="#eea987"/><path d="M6.253,0,9.534,2.388l-5.71,8L0,7.215Z" transform="translate(41.035 163.858)" fill="#8fc9d8"/><path d="M3.355,0s-7.573,12.528.036,64.717c.877,6.025,37.267,42.622,37.267,42.622L50.6,93.967l-30.6-34.085-6.42-33.031Z" transform="translate(0 67.264)" fill="#1d3b54"/><path d="M0,0,8.951,33.031,27.073,56.12,6.42,34.682Z" transform="translate(13.586 94.116)" fill="#163342"/></g><path d="M4.239,0S15.321.962,19.8,7.469s11.276,47.7,11.276,47.7l26.247,6.113L55.6,76.482s-33.676-4.923-36.283-8.011-4.866-20.55-4.866-20.55L16.424,91.63S14.353,99.35,3.1,98.724c-3.5-.2-3.084-57.76-3.084-57.76Z" transform="translate(112.203 61.469)" fill="#1d3b54"/><path d="M0,9.457H383.851V0H0Z" transform="translate(135.824 156.037)" fill="#601d18"/><path d="M25.8,104.025h8.451L14.9,0H0Z" transform="translate(499.597 165.494)" fill="#7f2f24"/><path d="M0,14.185,35.3,0H371.081l43.479,14.185Z" transform="translate(120.47 128.849)" fill="#a3412e"/><path d="M12.992,65.843l-2.056.355L0,.355,2.059,0Z" transform="translate(284.641 226.963)" fill="#231f20"/><path d="M2.842,66.2H.8L.7,0,2.746,0Z" transform="translate(259.838 211.596)" fill="#231f20"/><path d="M0,65.843l2.055.355L12.992.355,10.933,0Z" transform="translate(225.586 226.963)" fill="#231f20"/><path d="M77.951,10.637c0,5.876-17.453,10.641-38.978,10.641S0,16.513,0,10.637V4.923C6.372,3.682,30.553,0,38.974,0,52.795,0,71.028,1.962,77.951,4.923Z" transform="translate(223.224 212.778)" fill="#efaf18"/><path d="M77.951,10.641c0,5.876-17.453,10.637-38.978,10.637S0,16.517,0,10.641,17.453,0,38.974,0,77.951,4.764,77.951,10.641" transform="translate(223.224 206.868)" fill="#fcd975"/><path d="M8.448,104.025H0L19.35,0h14.9Z" transform="translate(121.651 165.494)" fill="#7f2f24"/><path d="M8.659,6.588c-.522.387-1.013.811-1.512,1.221C6.98,5.614,9.429,3.46,8.568,1.1a.553.553,0,0,0-.9-.229A4.694,4.694,0,0,0,6.29,3.258,8.4,8.4,0,0,0,6.245.381a.546.546,0,0,0-.9-.229,5.544,5.544,0,0,0-.967,1.619,4.913,4.913,0,0,0-.114-.542.552.552,0,0,0-.983-.122C1.815,3.117,2.44,5.566,1.964,7.82a20.5,20.5,0,0,0-.941-2.431.546.546,0,0,0-1,.262,14.272,14.272,0,0,0,.514,4.92c.122,2.062,1.714,4.47,3.706,4.769a2.691,2.691,0,0,0,2.792-1.7,13.092,13.092,0,0,0,.6-2.674A15.363,15.363,0,0,1,9.391,7.3c.232-.413-.278-1.047-.731-.708" transform="translate(355.505 42.556)" fill="#feb187"/><path d="M51.2,28.37c-3.654-1.24-6.556-3.025-10.269-4.287-6.388-2.177-11.638-4.855-18.223-6.23a4.177,4.177,0,0,1-1.365-.452,7.645,7.645,0,0,1-1.185-1.113,8.319,8.319,0,0,0-2.777-1.535q-4.243-1.664-8.552-3.171c-2.249-.788-5.786-1.251-7.694-2.715C-1.679,6.709,1.278,1.189,4.1.222,5.908-.395,7.937.386,9.728,1.2A118.933,118.933,0,0,1,23.4,8.5a36.609,36.609,0,0,0,4.135,2.36c1.416.635,2.909,1.061,4.377,1.554a55.024,55.024,0,0,1,16.844,9.3,14.229,14.229,0,0,0,3.21,2.17Z" transform="translate(282.278 135.942)" fill="#feb187"/><path d="M0,9.441C4.516,4.034,6.506,2.329,13.21.421a.186.186,0,0,1,.181.308c-1.093,1.218-2.96,1.94-4.407,2.7L14.795.087a.433.433,0,0,1,.633.558c-.991,1.8-3.618,3.055-5.482,3.877A23.773,23.773,0,0,1,16.137.476a.285.285,0,0,1,.311.466,24.991,24.991,0,0,1-6.061,3.774,19.559,19.559,0,0,1,5.558-2.744.319.319,0,0,1,.336.514,25.942,25.942,0,0,1-7.54,5.2c.861.69,3.311-.246,4.385-.007a.744.744,0,0,1,.13,1.4C10.316,10.409,5.9,13.174,2.623,12.995Z" transform="translate(330.703 151.309)" fill="#feb187"/><path d="M5.377,56.741c.711-3.84.581-7.274,1.3-11.181,1.232-6.72,1.474-12.669,3.507-19.173a4.236,4.236,0,0,0,.275-1.433,8.242,8.242,0,0,0-.387-1.589,8.362,8.362,0,0,1,.026-3.2q.625-4.571,1.426-9.12c.421-2.374,1.75-5.737,1.411-8.137-.5-3.542-6.768-3.579-9-1.537C2.514,2.674,2.2,4.851,2.03,6.834a121.36,121.36,0,0,0-.342,15.65,37.727,37.727,0,0,1,.03,4.811c-.141,1.563-.5,3.092-.793,4.636A56.14,56.14,0,0,0,.772,51.364a14.578,14.578,0,0,1,.32,3.892Z" transform="translate(248.027 154.855)" fill="#feb187"/><path d="M15.891,0C8.938,1.4,6.47,2.348,1.506,7.411a.186.186,0,0,0,.18.31c1.6-.384,3.154-1.7,4.523-2.622L.438,8.663A.438.438,0,0,0,.614,9.5C2.674,9.49,5.064,7.754,6.7,6.491A24.264,24.264,0,0,0,.115,10.047a.289.289,0,0,0,.257.506A25.355,25.355,0,0,0,6.654,6.979a19.888,19.888,0,0,0-5.133,3.63.321.321,0,0,0,.286.55,26.314,26.314,0,0,0,8.261-4.2c.18,1.108-1.843,2.84-2.155,3.914a.739.739,0,0,0,1.157.8c2.61-1.983,7.2-4.582,8.647-7.6Z" transform="translate(235.035 208.05)" fill="#feb187"/><path d="M.754,59.4a2.23,2.23,0,0,1,1.411-1.555q.473-3.574,1.23-7.1A86.78,86.78,0,0,1,7.923,36.159C8.562,34.6,14.116,21.07,15.56,21.592A45.128,45.128,0,0,1,2.02,14.052C.3,12.625.558,9.64,2.02,8.158a4.45,4.45,0,0,1,.374-.335A11.719,11.719,0,0,1,.866,5.276C-.222,2.72,3.032.187,5.278.011A6.957,6.957,0,0,1,8.837,1.029C13.808,3.529,21.6,7,24.558,11.871c3.273,5.4.156,12.1-1.839,17.339a153.137,153.137,0,0,1-7.238,16.644,72.1,72.1,0,0,1-4.673,7.75,40.116,40.116,0,0,0-2.279,3.324c-.337.6-2.474,3.614-2.3,4.158.337,1.1.5,2.254.8,3.368A14.316,14.316,0,0,1,7.691,68.5c-.036,1.978-2.645,3.324-4.064,1.7-1.3-1.485-1.948-3.522-2.808-5.291A6.259,6.259,0,0,1,0,61.943,10.278,10.278,0,0,1,.754,59.4" transform="translate(274.011 205.686)" fill="#feb187"/><path d="M2.867,3.57a5.083,5.083,0,0,1-.158-.636C1.681-2.727,10.3,1.357,12.3,2.417c7.956,4.229,12.674,11.4,10.936,20.446-1.141,5.925-2.3,12.025-3.494,18.006-.608,3.042-1.216,6.085-1.877,9.116-.612,2.819-1.689,5.531-2.105,8.4A11.013,11.013,0,0,1,18.6,59.651c.409.249.8.521,1.212.774.18.115.36.231.548.335.158.093,1.13.554.139.145a4.682,4.682,0,0,1,2.545,1.938,4.271,4.271,0,0,1,.428,3.247c-.011.037-.03.074-.041.108-.8-.16-1.6-.324-2.409-.506C17.1,64.8,13.754,62.809,9.75,62.545a3.509,3.509,0,0,1,.143-1.361,4.78,4.78,0,0,1,.409-.919,6.6,6.6,0,0,1-.57-1.789,16.989,16.989,0,0,1-.221-1.953,131.223,131.223,0,0,1-.015-19.244c.086-1.22,1.546-14.617,2.556-17.2A52.411,52.411,0,0,1,1.137,10.566c-2.346-2.585-.709-5.97,1.73-7" transform="translate(291.727 200.957)" fill="#feb187"/><path d="M.151,16.77C.344,14.665-.534,5.577,2.669,5.1A1.528,1.528,0,0,1,4.424,6.349Q8.157,4.568,11.9,2.787C12.982,2.27,15.718-.112,16.874,0c1.8.186,2.2,2.775,2.311,3.981.148,1.646-.2,3.3-.181,4.946a12.515,12.515,0,0,0,3.629,8.421c2.359,2.477,5.8,3.486,8.247,5.842,3.259,3.136-2.181,3.916-4.74,4.874q-6.1,2.284-12.209,4.564a5.524,5.524,0,0,1-1.944.466c-3.077-.025-8.454-4.961-10.079-6.99C-.242,23.439-.13,19.873.151,16.77" transform="translate(276.373 180.861)" fill="#0f0f3f"/><path d="M.149,16.881C.342,14.762-.538,5.614,2.676,5.137A1.532,1.532,0,0,1,4.438,6.391l7.5-3.586C13.03,2.285,15.773-.113,16.932,0a2.281,2.281,0,0,1,1.791,1.617,3.292,3.292,0,0,1,2.821,2.2,16.638,16.638,0,0,1-.669,11.26,14.39,14.39,0,0,0,1.836,2.394c1.349,1.415,9.964,5.368,9.12,7.384-.818,1.962-5.192,3.469-6.927,4.884a22.389,22.389,0,0,0-4.14,4.4c-1.293,1.826-1.007,2.849-3.259,2.394s-4.735-2.7-6.7-3.769c-3.237-1.756-6.682-3.722-8.893-6.486-2.152-2.688-2.04-6.273-1.762-9.4" transform="translate(261.019 187.954)" fill="#262262"/><path d="M28.058,32.5a3.84,3.84,0,0,0-2.173-4.541c-4.9-2.3-8.828-5.588-9.708-11.177a26.725,26.725,0,0,1-.306-6.135,8.986,8.986,0,0,1,.586-2.869,1.335,1.335,0,0,1,.921-.91c3.488-1.564,1.7-6.3-1.429-6.607L15.92.255C7.272-1.64,3.471,7.422,3.018,14.917c-.2.892-.368,1.791-.541,2.683-.582,2.995-.718,5.99-1.072,9.011-.088.739-.033.156-.007.022-.041.208-.085.42-.136.624-.144.55-.284,1.1-.427,1.65a31.753,31.753,0,0,0-.729,3.27C-1.243,41.2,10.686,41.636,16.789,41.3c3.554-.2,7.83-.5,10.949-2.449a3.916,3.916,0,0,0,.32-6.346" transform="translate(248.027 89.84)" fill="#4c2a1b"/><path d="M30.845,20.672c-1.185-3.2-3.2-6.047-4.534-9.193A35.153,35.153,0,0,0,23.9,6.487c-.922-1.469-2.137-2.765-3-4.271A3.042,3.042,0,0,0,17.092.609,2.791,2.791,0,0,0,16.3,1.1,8.038,8.038,0,0,0,10.618.151a13.1,13.1,0,0,0-10.45,10.9,17.494,17.494,0,0,0,2.5,11.394,5.08,5.08,0,0,1,1.914,2.608A62.416,62.416,0,0,0,8.028,32.8a32.729,32.729,0,0,0,6.05,2.223c4.3,1.282,9.6,2.809,13.724.187,4.727-3.011,4.775-9.863,3.043-14.537" transform="translate(261.019 93.386)" fill="#feb187"/><path d="M18.514.592C13.231-.882,8.5.551,3.836,3.172A3.271,3.271,0,0,0,2.365,7.609,3.024,3.024,0,0,0,.356,9.773c-.712,3.616.385,6.07,1.657,9.374a2.394,2.394,0,0,1,.236,1.845C1.9,21.954.828,22.927.33,23.844c-2.154,3.972,6.983,8.257,5.827,3.839C3.179,16.3,7.524,22.025,14.535,18.806c3.488-1.6,6.125-5.22,9.9-6.252a3.586,3.586,0,0,0,2.732-3.263c-.124-4.878-4.469-7.533-8.65-8.7" transform="translate(257.476 87.475)" fill="#4c2a1b"/><path d="M5.75.805S-.9-1.662.1,2.042s6.983,5.05,6.983,5.05Z" transform="translate(261.019 114.664)" fill="#feb187"/><path d="M15.087,14.634A39.233,39.233,0,0,0,11.58,3.359,3.335,3.335,0,0,0,6.879,2c-.048-.091-.1-.181-.151-.272C4.459-2.1-1.792,1.075.5,4.936c.147.254.258.515.387.783a.052.052,0,0,1,.007.025c.059.17.114.341.166.508q.387,1.267.759,2.534c.545,1.845,1.113,3.7,1.82,5.493.486,2.991.939,6.388,2.818,8.636s4.675,2.143,7.312,1.534a3.538,3.538,0,0,0,2.77-3.187,25.573,25.573,0,0,0-1.448-6.627" transform="translate(265.743 117.028)" fill="#feb187"/><path d="M47.088,32.186c-.15-.834-.278-1.639-.4-2.415C45.4,21.525,45.522,20.014,45.61,18.5a4.227,4.227,0,0,0,2.835-1.951c.717-1.165,1.024-5.954,1.635-7.152a12.6,12.6,0,0,0,1.306-3.41A33.634,33.634,0,0,1,46.641,3.41C44.882,2.282,42.914.823,41.421.423A7.159,7.159,0,0,0,39.084.165c-1.266-.033-2.539,0-3.808,0A4.407,4.407,0,0,1,34.033,0c-.19.018-.337.033-.45.048a1.591,1.591,0,0,0-.388.062S28.729,12.065,20.674,1.158c-.534-.055-1.046-.1-1.525-.125C18.571,1,18.04.985,17.543.992a13.019,13.019,0,0,0-4.346.639A4.216,4.216,0,0,0,10.52,2.7a7.3,7.3,0,0,1-.86.632q-1.147,1.18-2.4,2.275A68.643,68.643,0,0,0,.969,19.357h0c-1.357,1.65-1.5,4.234.936,5.45,2.762,1.374,6.478,3.377,9.62,3.33q.005,2.486-.037,4.98c-.015.753-.029,1.5-.048,2.256v.007c-.238,9.643-.925,19.279-1.752,27.9,14.493,2.08,30.009-2,43.459-7.538a172.279,172.279,0,0,1-6.061-23.557" transform="translate(249.208 133.577)" fill="#8fc9d8"/><path d="M.391,2.034C.672,1.606.594.229,1.2,0A12.621,12.621,0,0,0,9.637,3.932a4.576,4.576,0,0,0,3.65-1.527c.206.06.413.12.619.184,2.749.867,5.022,2.124,6.005,4.214.683,1.448-.8,3.411-2.971,3.7a20.366,20.366,0,0,1-11.2-2.128C4.119,7.632,2.263,6.964.995,5.666a2.948,2.948,0,0,1-.6-3.632" transform="translate(299.995 260.062)" fill="#da1c5c"/><path d="M2.677.594c.5-.015,1.566-.866,2.085-.505A12.621,12.621,0,0,0,6.383,9.168a4.492,4.492,0,0,0,3.29,2.081c.07.2.14.405.2.606.866,2.724,1.138,5.281.018,7.265-.777,1.382-3.187,1.3-4.649-.29A20.276,20.276,0,0,1,.61,8.54C.293,6.808-.223,4.924.105,3.151A2.9,2.9,0,0,1,2.677.594" transform="translate(271.649 262.426)" fill="#da1c5c"/><path d="M0,1.393s5.486-3.135,14.173,0c-3.738,5.7-5.665,5.7-5.665,5.7Z" transform="translate(341.332 113.482)" fill="#a7a9ac"/><path d="M2.362,16.729,0,0S7.086,2.705,14.173,0a151.267,151.267,0,0,0-2.366,16.875s-5.9,2.021-9.445-.146" transform="translate(341.332 114.664)" fill="#d1d3d4"/><path d="M0,1.393s5.485-3.135,14.173,0c-3.74,5.7-5.664,5.7-5.664,5.7Z" transform="translate(304.719 122.939)" fill="#a7a9ac"/><path d="M2.362,16.729,0,0S7.085,2.705,14.173,0a151.306,151.306,0,0,0-2.365,16.875S5.9,18.9,2.362,16.729" transform="translate(304.719 124.121)" fill="#d1d3d4"/><path d="M1.771,3.025s-1.105-.731,0-2.5a1.909,1.909,0,0,1,0,2.5" transform="translate(546.841 61.469)" fill="#fcd975"/><path d="M1.382,9.457h.78V0h-.78Z" transform="translate(546.841 63.833)" fill="#d1d3d4"/><path d="M.181,47.284,0,39.441,3.9,0s4.8.018,7.915,1.514C8.653,14.9.181,47.284.181,47.284" transform="translate(111.747 61.193)" fill="#163342"/><path d="M4.137,0S14.99.962,19.375,7.469s11.043,47.7,11.043,47.7l25.706,6.113-1.681,15.2s-32.982-4.923-35.536-8.011-4.766-20.55-4.766-20.55L0,40.964Z" transform="translate(113.399 61.469)" fill="#1d3b54"/><path d="M1.362,3.294C4.453,1.358,8.994.553,12.836.116a16.158,16.158,0,0,1,6.489.535,9.014,9.014,0,0,1,5.059,2.075.3.3,0,0,1,.049.029A3.389,3.389,0,0,1,24.85,3c2.863,1.225,2.638,4.833,2.487,7.116-.118,1.752-3.773,1.671-3.692-.065A2.513,2.513,0,0,1,21.35,9.9a11.708,11.708,0,0,1-7.028,1.683,2.211,2.211,0,0,1-.915.359,18.814,18.814,0,0,1-7.865-.065A6.067,6.067,0,0,1,3,10.647c-.817-.731-.637-1.634-1.2-2.41a.948.948,0,0,1-.192-.784c-1.715-.895-2.43-2.794-.245-4.159" transform="translate(167.185 125.025)" fill="#eea987"/><path d="M2.765,0,7.252.735,5.419,11.54,0,10.3Z" transform="translate(165.351 124.9)" fill="#8fc9d8"/><path d="M2.155.044c3.263.7,6.954.85,9.788,2.794a1.749,1.749,0,0,1,0,2.978C8.754,7.83,4.356,5.509,1.591,3.708a1.856,1.856,0,0,1-.4-.347C-.916,2.854,0-.414,2.155.044" transform="translate(174.457 131.196)" fill="#feb187"/><g transform="translate(179.863 111.118)"><path d="M16.367,10.2c0,5.846-8.183,6.2-8.183,6.2S0,16.046,0,10.2A18.615,18.615,0,0,1,.29,7.165C.711,4.726,1.49,2.177,2.07,0H14.3c.2.756.429,1.565.653,2.394.429,1.548.853,3.182,1.127,4.771a18.173,18.173,0,0,1,.29,3.035" transform="translate(0 0)" fill="#e7e7e7"/><path d="M14.77,20.172l-3.675-.229A2.5,2.5,0,0,1,8.714,17.48V11.454A3.331,3.331,0,0,1,11.136,8.26c2.344-.674,5.227-2.21,5.227-5.678A17.338,17.338,0,0,0,16.146,0H.216A17.338,17.338,0,0,0,0,2.582c0,3.468,2.883,5,5.227,5.678a3.331,3.331,0,0,1,2.422,3.194V17.48a2.464,2.464,0,0,1-2.381,2.463l-3.675.229c-.192.029,13.369.029,13.178,0" transform="translate(0.002 7.621)" fill="#e7e7e7"/><path d="M16.367,3.035c0,5.846-8.183,6.2-8.183,6.2S0,8.881,0,3.035A18.615,18.615,0,0,1,.29,0H16.077a18.173,18.173,0,0,1,.29,3.035" transform="translate(0 7.165)" fill="#bc1153"/><path d="M0,0C.743,3.668,1.793,8.5,1.932,9.592,2.144,11.319.118,15.074.118,15.074A9.612,9.612,0,0,0,4.484,9.592C4.553,9.052,3.308,3.9,2.466,0Z" transform="translate(10.728 0)" fill="#fff"/></g><g transform="translate(230.311 106.389)"><path d="M15.2,9.35c0,5.358-7.6,5.684-7.6,5.684S0,14.709,0,9.35A16.852,16.852,0,0,1,.269,6.568C.66,4.332,1.384,2,1.922,0H13.275c.19.693.4,1.434.607,2.194.4,1.419.792,2.917,1.047,4.374A16.452,16.452,0,0,1,15.2,9.35" transform="translate(0 0)" fill="#e7e7e7"/><path d="M13.715,18.491l-3.413-.21a2.329,2.329,0,0,1-2.184-1.94,2.3,2.3,0,0,1-.027-.318V10.5A3.059,3.059,0,0,1,10.34,7.572c2.177-.618,4.854-2.026,4.854-5.2A15.694,15.694,0,0,0,14.993,0H.2A15.694,15.694,0,0,0,0,2.367c0,3.179,2.677,4.587,4.854,5.2A3.059,3.059,0,0,1,7.1,10.5v5.523a2.286,2.286,0,0,1-.023.318,2.337,2.337,0,0,1-2.188,1.94l-3.413.21c-.178.026,12.414.026,12.236,0" transform="translate(0.002 6.986)" fill="#e7e7e7"/><path d="M15.2,2.782c0,5.358-7.6,5.684-7.6,5.684S0,8.141,0,2.782A16.852,16.852,0,0,1,.269,0H14.928A16.452,16.452,0,0,1,15.2,2.782" transform="translate(0 6.568)" fill="#bc1153"/><path d="M0,0C.69,3.363,1.665,7.8,1.794,8.792,1.991,10.376.11,13.817.11,13.817A8.824,8.824,0,0,0,4.163,8.792C4.228,8.3,3.071,3.576,2.29,0Z" transform="translate(9.962 0)" fill="#fff"/></g><g transform="translate(473.614 109.935)"><path d="M15.2,9.35c0,5.358-7.6,5.684-7.6,5.684S0,14.709,0,9.35A16.852,16.852,0,0,1,.269,6.568C.66,4.332,1.384,2,1.922,0H13.275c.19.693.4,1.434.607,2.194.4,1.419.792,2.917,1.047,4.374A16.452,16.452,0,0,1,15.2,9.35" transform="translate(0 0)" fill="#e7e7e7"/><path d="M13.715,18.491l-3.413-.21a2.329,2.329,0,0,1-2.184-1.94,2.3,2.3,0,0,1-.027-.318V10.5A3.059,3.059,0,0,1,10.34,7.572c2.177-.618,4.854-2.026,4.854-5.2A15.694,15.694,0,0,0,14.993,0H.2A15.694,15.694,0,0,0,0,2.367c0,3.179,2.677,4.587,4.854,5.2A3.059,3.059,0,0,1,7.1,10.5v5.523a2.286,2.286,0,0,1-.023.318,2.337,2.337,0,0,1-2.188,1.94l-3.413.21c-.178.026,12.414.026,12.236,0" transform="translate(0.002 6.986)" fill="#e7e7e7"/><path d="M15.2,2.782c0,5.358-7.6,5.684-7.6,5.684S0,8.141,0,2.782A16.852,16.852,0,0,1,.269,0H14.928A16.452,16.452,0,0,1,15.2,2.782" transform="translate(0 6.568)" fill="#bc1153"/><path d="M0,0C.69,3.363,1.665,7.8,1.794,8.792,1.991,10.376.11,13.817.11,13.817A8.824,8.824,0,0,0,4.163,8.792C4.228,8.3,3.071,3.576,2.29,0Z" transform="translate(9.962 0)" fill="#fff"/></g></svg>