<svg xmlns="http://www.w3.org/2000/svg" xmlns:xlink="http://www.w3.org/1999/xlink" width="289.185" height="403.084" viewBox="0 0 289.185 403.084"><defs><clipPath id="a"><path d="M0,403.084H289.185V0H0Z" transform="translate(0 0.416)" fill="none"/></clipPath></defs><g transform="translate(0 -0.75)"><g transform="translate(0 0.334)"><path d="M0,403.084H289.185V0H0Z" transform="translate(0 0.416)" fill="none"/><g clip-path="url(#a)"><path d="M0,209.029H292.444V0H0Z" transform="translate(0.004 194.471)" fill="#3c3c3c"/><path d="M0,206.059H4.024V0H0Z" transform="translate(144.454 194.471)" fill="#606060"/><path d="M0,9.956H292.444V0H0Z" transform="translate(0.004 193.56)" fill="#606060"/><path d="M43.819,1.179s2.464,15.926-11.955,19.376A311.049,311.049,0,0,1,0,25.982v-13S26.085.422,29.194.036,44.5,2.522,44.5,2.522Z" transform="translate(228.249 169.429)" fill="#ffb680"/><path d="M0,2.522s.889,15.439,15.307,18.9A211.852,211.852,0,0,0,44.5,25.982v-13S18.413.422,15.307.036,0,2.522,0,2.522" transform="translate(157.664 169.429)" fill="#ffb680"/><path d="M10.65,21.221c2.164-.446,6.578-3.99,7.32-6.019C16.9,10.35,17.606,2.5,17.606,2.5L1.462,0S.892,10.755,0,15.454c.941,3.131,6.2,6.69,10.65,5.768" transform="translate(206.382 80.16)" fill="#ffb680"/><path d="M40.615,20.62c-.525-2.486-3.045-2.134-3.937-1.927C35.481,8.155,29.432.31,21.182.01,12.741-.3,6.111,6.857,4.352,17.522c-.84-.266-3.382-.844-4.1,1.628-.859,2.974.476,7.526,3.81,8.775.011,0,.023,0,.034.007a19.32,19.32,0,0,0,1.279,5.3C8.669,41.061,14.92,47.095,19.461,47.26c4.65.169,10.808-5.107,14.6-12.986a31.384,31.384,0,0,0,1.946-5.145,1.492,1.492,0,0,0,.169-.034c3.416-1,5.081-5.449,4.44-8.475" transform="translate(195.517 43.916)" fill="#ffb680"/><path d="M.13,24.014c-.968-7.466,3.683-14.951,6.292-17.9C13.758-2.168,27.265-.994,31.379,3.5c8.884,9.709,8.651,16.732,6.067,21.5C35.5,32.433,33.029,44.722,19.5,44.722c-8.52,0-16.575-12.214-19.372-20.708" transform="translate(196.388 37.685)" fill="#3c3c3c"/><path d="M111.919,60.559C107.37,37.9,102.36,15.608,95.674,11.486S66.394,0,66.394,0H49.013s-22.6,7.361-29.284,11.486S8.036,37.9,3.487,60.559C2.467,65.64,1.256,71.321,0,77.033c8.464,13.725,19.654,4.646,19.654,4.646l8.475-38.243,5.644,38.243H81.634l5.644-38.243,5.13,34.811s13.7,14.01,21.465,2.411c1.658-7.286-.934-15.019-1.954-20.1" transform="translate(157.665 94.92)" fill="#fff"/><path d="M27.861.768S8.875,9.99,3.621,13.342.378,19.923.378,19.923H38.77s.544-14.947-.536-18.18S27.861.768,27.861.768" transform="translate(158.092 381.885)" fill="#fff"/><path d="M7.909,0S7.148,34.931,5.655,49.222C3.259,72.184,0,115.271,0,115.271H24.255s4.811-54.735,7.485-76.552C33.615,23.419,37.361,0,37.361,0Z" transform="translate(174.641 270.974)" fill="#606060"/><path d="M0,3.338H38.768V.412H0Z" transform="translate(158.096 399.934)" fill="#606060"/><path d="M11.046.768s18.99,9.221,24.24,12.574,3.244,6.581,3.244,6.581H.137S-.407,4.976.673,1.743,11.046.768,11.046.768" transform="translate(235.759 381.885)" fill="#fff"/><path d="M29.452,0s.761,34.931,2.254,49.222c2.4,22.961,5.655,66.049,5.655,66.049H13.106S8.3,60.536,5.621,38.719C3.746,23.419,0,0,0,0Z" transform="translate(220.757 270.974)" fill="#606060"/><path d="M0,3.338H38.768V.412H0Z" transform="translate(235.898 399.934)" fill="#606060"/><path d="M80.865,58.455C79.2,29.441,66.851,0,66.851,0H18.469S6.124,29.441,4.455,58.455,0,118.658,0,118.658H85.32s-2.783-31.185-4.455-60.2" transform="translate(172.969 176.597)" fill="#fde875"/><path d="M0,25.927H39.007V0H0Z" transform="translate(196.387 32.516)" fill="#fff"/><path d="M0,4.823H49.455V0H0Z" transform="translate(190.928 173.167)" fill="#f2c300"/><path d="M16.958,0C8.539,0,0,11.212,0,11.212l34.879-.36S25.372,0,16.958,0" transform="translate(197.628 86.948)" fill="#d8d8d8"/><path d="M10.659,2.239S5.435.2,2.578.008s-3.971,3.319,0,5.074A49.453,49.453,0,0,0,12.744,8.4Z" transform="translate(2.445 135.017)" fill="#c1c1c1"/><path d="M2.085,2.239S7.309.2,10.166.008s3.971,3.319,0,5.074A49.453,49.453,0,0,1,0,8.4Z" transform="translate(63.198 135.017)" fill="#c1c1c1"/><path d="M0,63.4H55.29V0H0Z" transform="translate(11.085 130.163)" fill="#d8d8d8"/><path d="M59.7,3.452H1.579A1.577,1.577,0,1,1,1.579.3H59.7a1.577,1.577,0,1,1,0,3.154" transform="translate(8.288 127.904)" fill="#c1c1c1"/><path d="M0,74.936H126.03V0H0Z" transform="translate(10.875 319.091)" fill="#606060"/><path d="M0,74.936H126.03V0H0Z" transform="translate(10.875 235.928)" fill="#606060"/><path d="M12.041,6.019A6.021,6.021,0,1,1,6.023,0a6.018,6.018,0,0,1,6.019,6.019" transform="translate(120.431 212.873)" fill="#fff"/><path d="M5.235,2.618A2.618,2.618,0,1,1,2.618,0,2.615,2.615,0,0,1,5.235,2.618" transform="translate(123.835 216.274)" fill="#606060"/><path d="M12.038,6.019A6.019,6.019,0,1,1,6.019,0a6.018,6.018,0,0,1,6.019,6.019" transform="translate(94.265 212.873)" fill="#fff"/><path d="M5.235,2.618A2.618,2.618,0,1,1,2.618,0,2.615,2.615,0,0,1,5.235,2.618" transform="translate(97.665 216.274)" fill="#606060"/><path d="M12.038,6.019A6.019,6.019,0,1,1,6.019,0a6.018,6.018,0,0,1,6.019,6.019" transform="translate(66.369 212.873)" fill="#fff"/><path d="M5.235,2.618A2.618,2.618,0,1,1,2.618,0,2.615,2.615,0,0,1,5.235,2.618" transform="translate(69.77 216.274)" fill="#606060"/><path d="M12.041,6.019A6.021,6.021,0,1,1,6.023,0a6.018,6.018,0,0,1,6.019,6.019" transform="translate(40.198 212.873)" fill="#fff"/><path d="M5.235,2.618A2.618,2.618,0,1,1,2.618,0,2.615,2.615,0,0,1,5.235,2.618" transform="translate(43.6 216.274)" fill="#606060"/><path d="M12.041,6.019A6.021,6.021,0,1,1,6.023,0a6.018,6.018,0,0,1,6.019,6.019" transform="translate(15.301 212.873)" fill="#fff"/><path d="M5.235,2.618A2.618,2.618,0,1,1,2.618,0,2.615,2.615,0,0,1,5.235,2.618" transform="translate(18.705 216.274)" fill="#606060"/><path d="M35.741,4.838H2.419A2.419,2.419,0,1,1,2.419,0H35.741a2.419,2.419,0,1,1,0,4.838" transform="translate(54.807 326.191)" fill="#e8e8e8"/><path d="M58.35,29.171A29.175,29.175,0,1,1,29.175,0,29.171,29.171,0,0,1,58.35,29.171" transform="translate(15.744 251.987)" fill="#e8e8e8"/><path d="M28.29,14.141A14.145,14.145,0,1,1,14.145,0,14.143,14.143,0,0,1,28.29,14.141" transform="translate(30.775 267.017)" fill="#c6c6c6"/><path d="M51.424,25.71A25.712,25.712,0,1,1,25.714,0a25.707,25.707,0,0,1,25.71,25.71" transform="translate(52.22 258.913)" fill="#e8e8e8"/><path d="M24.93,12.469A12.465,12.465,0,1,1,12.465,0,12.463,12.463,0,0,1,24.93,12.469" transform="translate(65.468 272.154)" fill="#c6c6c6"/><path d="M44.9,22.448A22.449,22.449,0,1,1,22.451,0,22.445,22.445,0,0,1,44.9,22.448" transform="translate(87.621 265.434)" fill="#e8e8e8"/><path d="M21.769,10.882A10.884,10.884,0,1,1,10.886,0,10.879,10.879,0,0,1,21.769,10.882" transform="translate(99.186 276.999)" fill="#c6c6c6"/><path d="M10.659,2.239S5.431.2,2.578.008s-3.971,3.315,0,5.07A49.344,49.344,0,0,0,12.744,8.4Z" transform="translate(42.023 151.848)" fill="#c1c1c1"/><path d="M2.085,2.239S7.309.2,10.166.008s3.971,3.315,0,5.07A49.344,49.344,0,0,1,0,8.4Z" transform="translate(111.091 151.848)" fill="#c1c1c1"/><path d="M0,44.715H62.722V0H0Z" transform="translate(51.847 148.849)" fill="#fff"/><path d="M67.23,3.452H1.579A1.577,1.577,0,1,1,1.579.3H67.23a1.577,1.577,0,1,1,0,3.154" transform="translate(48.654 146.973)" fill="#c1c1c1"/><path d="M1,38.063H2.747V0H1Z" transform="translate(109.449 272.269)" fill="#fff"/><path d="M1,38.063H2.747V0H1Z" transform="translate(98.323 272.269)" fill="#fff"/><path d="M1,38.063H2.747V0H1Z" transform="translate(87.201 272.269)" fill="#fff"/><path d="M1,38.063H2.747V0H1Z" transform="translate(76.074 272.269)" fill="#fff"/><path d="M1,38.063H2.747V0H1Z" transform="translate(64.948 272.269)" fill="#fff"/><path d="M1,38.063H2.747V0H1Z" transform="translate(53.826 272.269)" fill="#fff"/><path d="M1,38.063H2.747V0H1Z" transform="translate(42.699 272.269)" fill="#fff"/><path d="M1,38.063H2.747V0H1Z" transform="translate(31.577 272.269)" fill="#fff"/><path d="M105.566,39.413H0V11.344A11.356,11.356,0,0,1,11.344,0H94.223a11.356,11.356,0,0,1,11.344,11.344V39.412ZM11.344,1.748a9.609,9.609,0,0,0-9.6,9.6V37.669H103.819V11.344a9.607,9.607,0,0,0-9.6-9.6Z" transform="translate(19.605 271.453)" fill="#fff"/><path d="M0,5.6H153.9V0H0Z" transform="translate(9.686 93.202)" fill="#606060"/><path d="M3.855,0H.72A.717.717,0,0,0,0,.716V7.174a.717.717,0,0,0,.72.716H3.855a.714.714,0,0,0,.716-.716V.716A.714.714,0,0,0,3.855,0" transform="translate(96.154 16.027)" fill="#fc8c06"/><path d="M11.854,18.274V0H6.675V18.27A9.252,9.252,0,0,0,0,27.15c0,.173.015.337.023.5V71.179a.677.677,0,0,0,.675.675H17.809a.677.677,0,0,0,.675-.675V60.641H9.259V33.191h9.225V27.653c.007-.165.023-.33.023-.5a9.255,9.255,0,0,0-6.653-8.876" transform="translate(89.183 20.81)" fill="#ff364a"/><path d="M9.259,0H0V27.45H18.51V0Z" transform="translate(89.181 54.001)" fill="#fde875"/><path d="M6.383,1.511V1.462a.894.894,0,0,0-.9-.9H1.14a.894.894,0,0,0-.9.9v.049a.393.393,0,0,0,0,.727.377.377,0,0,0,.146.03.377.377,0,0,1-.146-.03v.049a.9.9,0,0,0,.9.9H5.486a.9.9,0,0,0,.9-.9V2.239a.393.393,0,0,0,0-.727" transform="translate(95.128 18.934)" fill="#ff364a"/><path d="M13.9,10.222C13.9,4.838,10.95.476,7.219.079V0c-.09,0-.176.034-.27.041C6.859.034,6.776,0,6.682,0V.079C2.951.476,0,4.838,0,10.222s2.951,9.75,6.682,10.148v.075c.094,0,.176-.034.266-.041s.18.041.27.041V20.37c3.731-.4,6.682-4.763,6.682-10.148" transform="translate(91.22 56.704)" fill="#fff"/><path d="M3.855,0H.716A.716.716,0,0,0,0,.716V7.174a.716.716,0,0,0,.716.716H3.855a.716.716,0,0,0,.716-.716V.716A.716.716,0,0,0,3.855,0" transform="translate(71.292 16.027)" fill="#fc8c06"/><path d="M11.854,18.274V0H6.675V18.27A9.252,9.252,0,0,0,0,27.15c0,.173.015.337.026.5V71.179a.674.674,0,0,0,.671.675H17.809a.677.677,0,0,0,.675-.675V60.641H9.259V33.191h9.225V27.653c.011-.165.026-.33.026-.5a9.258,9.258,0,0,0-6.656-8.876" transform="translate(64.319 20.81)" fill="#fde875"/><path d="M9.259,0H0V27.45H18.51V0Z" transform="translate(64.319 54.001)" fill="#fc8c06"/><path d="M6.386,1.511V1.462a.9.9,0,0,0-.9-.9H1.144a.9.9,0,0,0-.9.9v.049a.393.393,0,0,0,0,.727.412.412,0,0,0,.15.03h0a.412.412,0,0,1-.15-.03v.049a.9.9,0,0,0,.9.9H5.486a.9.9,0,0,0,.9-.9V2.239a.393.393,0,0,0,0-.727" transform="translate(70.263 18.934)" fill="#fde875"/><path d="M13.9,10.222C13.9,4.838,10.946.476,7.219.079V0c-.094,0-.18.034-.27.041C6.859.034,6.773,0,6.679,0V.079C2.947.476,0,4.838,0,10.222s2.947,9.75,6.679,10.148v.075c.094,0,.18-.034.27-.041s.176.041.27.041V20.37c3.727-.4,6.679-4.763,6.679-10.148" transform="translate(66.36 56.704)" fill="#fff"/><path d="M23.865,0H0V9.806a1.517,1.517,0,0,0,1.519,1.519h23.79a1.52,1.52,0,0,0,1.519-1.519V0Z" transform="translate(116.03 81.899)" fill="#fff"/><path d="M26.827,18.225H0V0H26.827V18.224ZM1.864,1.849V16.286h23.1V1.849H1.864Z" transform="translate(116.03 63.676)" fill="#fc8c06"/><path d="M23.1,14.438H0V0H23.1V14.437ZM11.55,2.426c-4.263,0-7.732,2.15-7.732,4.793s3.469,4.793,7.732,4.793,7.733-2.15,7.733-4.793S15.814,2.426,11.55,2.426Z" transform="translate(117.894 65.524)" fill="#ff364a"/><path d="M7.733,0C3.461,0,0,2.145,0,4.793S3.461,9.585,7.733,9.585s7.733-2.149,7.733-4.793S12,0,7.733,0" transform="translate(121.711 67.952)" fill="#fff"/><path d="M25.309,11.64C22.841,10.841,18,9.8,17.966,7.718c-.041-2.28,0-7.718,0-7.718h-9.1s.019,5.629,0,7.718S4.23,10.759,1.519,11.64C.72,11.9,0,12.319,0,13.159v5.505H26.827V13.159c0-.84-.724-1.26-1.519-1.519" transform="translate(116.031 45.015)" fill="#fff"/><path d="M11.033,0H.641A.644.644,0,0,0,0,.645V3.983a.645.645,0,0,0,.641.649H11.033a.646.646,0,0,0,.645-.649V.645A.645.645,0,0,0,11.033,0" transform="translate(123.606 43.652)" fill="#ff364a"/><path d="M23.865,0H0V9.806a1.517,1.517,0,0,0,1.519,1.519h23.79a1.517,1.517,0,0,0,1.519-1.519V0Z" transform="translate(29.256 81.899)" fill="#d8d8d8"/><path d="M26.827,18.225H0V0H26.827V18.224ZM1.864,1.849V16.286h23.1V1.849H1.864Z" transform="translate(29.256 63.676)" fill="#5b9b31"/><path d="M23.1,14.438H0V0H23.1V14.437ZM11.55,2.426c-4.263,0-7.732,2.15-7.732,4.793s3.469,4.793,7.732,4.793,7.733-2.15,7.733-4.793S15.814,2.426,11.55,2.426Z" transform="translate(31.12 65.524)" fill="#8dd35f"/><path d="M7.733,0C3.465,0,0,2.145,0,4.793S3.465,9.585,7.733,9.585s7.733-2.149,7.733-4.793S12,0,7.733,0" transform="translate(34.937 67.952)" fill="#fff"/><path d="M25.309,11.64C22.845,10.841,18,9.8,17.966,7.718c-.038-2.28,0-7.718,0-7.718h-9.1s.015,5.629,0,7.718S4.23,10.759,1.519,11.64C.724,11.9,0,12.319,0,13.159v5.505H26.827V13.159c0-.84-.72-1.26-1.519-1.519" transform="translate(29.256 45.015)" fill="#d8d8d8"/><path d="M11.033,0H.645A.645.645,0,0,0,0,.645V3.983a.646.646,0,0,0,.645.649H11.033a.646.646,0,0,0,.645-.649V.645A.645.645,0,0,0,11.033,0" transform="translate(36.832 43.652)" fill="#5b9b31"/><path d="M0,3.546H39V.2H0Z" transform="translate(196.391 56.503)" fill="#d8d8d8"/><path d="M35.16,53.438,0,49.631,5.366,0l35.16,3.8Z" transform="translate(386.694 196.582)" fill="#fff"/><path d="M10.5,9.094,0,7.957.863,0l10.5,1.133Z" transform="translate(404.059 193.003)" fill="#ff364a"/><path d="M40.046,20,6.33,30.671,0,10.669,33.72,0Z" transform="translate(324.225 98.183)" fill="#fff"/><path d="M12.488,7.635,2.415,10.823,0,3.188,10.073,0Z" transform="translate(334.559 97.211)" fill="#fde875"/></g></g></g></svg>