<svg xmlns="http://www.w3.org/2000/svg" xmlns:xlink="http://www.w3.org/1999/xlink" width="554" height="571" viewBox="0 0 554 571"><defs><clipPath id="a"><circle cx="196" cy="196" r="196" fill="rgba(211,211,211,0.24)"/></clipPath></defs><g transform="translate(-916 -177)"><g transform="translate(1078 356)"><circle cx="196" cy="196" r="196" fill="rgba(211,211,211,0.24)"/></g><g transform="translate(916 177)"><path d="M12.871,0s-2.172,5.232-4,7.3S.04,13.084,0,19.24c-.042,6.674,11.808,4.825,16.439,4.578s4.985-3.81,6.937-7.59,3.918-3.137,4.284-6.187-1.5-9.874-1.5-9.874L12.871,0" transform="translate(122.317 406.424)" fill="#163342"/><path d="M0,.886.356,4.319a21.312,21.312,0,0,0,13.139,0L13.453,0,0,.886" transform="translate(134.987 403.609)" fill="#2f6b8c"/><path d="M14.838,0s2.171,5.232,4,7.3,8.832,5.779,8.872,11.935c.041,6.674-11.808,4.825-16.44,4.578s-4.986-3.81-6.936-7.59S.416,13.091.047,10.04,1.542.167,1.542.167L14.838,0" transform="translate(190.232 406.424)" fill="#163342"/><path d="M13.5.886l-.358,3.433A21.312,21.312,0,0,1,0,4.319L.044,0,13.5.886" transform="translate(191.774 403.609)" fill="#2f6b8c"/><path d="M83.788,122.865c0,8.231-6.354,86.108-6.354,86.108-.823,2.747-16.252,3.04-18.995,1.666s.236-79.316-.271-87.616S45.1,52.909,42.7,53.181,32.292,121.893,30.373,128.2s-11.66,82.057-11.66,82.057c-6.036,3.565-18.713,0-18.713,0s2.363-78.64,2.706-80.959c.511-3.431-.022-12.683,1.373-33.214,1.249-18.362,5.761-58.346,8.622-80,.1-.772.2-1.51.293-2.219.562-4.216.983-7.312,1.184-8.8.088-.642.133-.985.133-.985.772-.352,1.578-.682,2.418-.982,20.093-7.222,58.852.421,58.852.421s.02.191.062.551c.053.433.136,1.115.238,2,.223,1.908.558,4.751.938,8.052l.007.07.035.3c1.352,11.743,3.263,28.938,3.083,30.725-.272,2.747,3.844,69.412,3.844,77.641" transform="translate(131.311 196.032)" fill="#385369"/><path d="M0,.455.972,9.647s.84,1.3,9.775,1.554S21.106,8.288,21.106,8.288L21.494,0S13.662,3.756,0,.455" transform="translate(188.221 397.043)" fill="#4f7594"/><path d="M21.5.455l-.97,9.192s-.845,1.3-9.779,1.554S.388,8.288.388,8.288L0,0S7.835,3.756,21.5.455" transform="translate(130.47 397.043)" fill="#4f7594"/><path d="M101.589,120.785s-.475-27.707-.122-35.428a158.1,158.1,0,0,1,3.643-28.562l.014-.047.014-.067c.437-1.744.846-3.247,1.193-4.465l10.043-37.608C109.328,6.683,85.914,0,85.914,0h-16.6S40.232,8.963,33.1,11.71.235,72.58,0,75.686c-.251,3.354,24.353,48.038,24.353,48.038a19.028,19.028,0,0,0,13.126-8.6S18.528,77.939,19.426,73.445c.67-3.353,17.059-25.4,17.79-25.027s6.116,30.389,1.073,71.753c0,0,20.149,7.568,63.3.614" transform="translate(106.318 87.47)" fill="#e6e6e6"/><path d="M10.72,22.066a7.9,7.9,0,0,1-2.168-1.249s-.882-1.154-1.565-1.942a6.949,6.949,0,0,0-.557-.583A13.081,13.081,0,0,1,3.3,15.164C2.28,13.54,0,5.458,0,5.458L4.714,2.916,8.773,0S20.16,5.432,21.318,6.84a4.517,4.517,0,0,1,.3.418c.84,1.28.833,2.574,1.186,3.289.128.269,1.187,2.986.656,3.752A3.525,3.525,0,0,1,20.8,15.92a8.045,8.045,0,0,1-3.289,2.548,5.228,5.228,0,0,1-3.71,2.027s-1.609,1.811-3.083,1.571" transform="translate(132.698 203.536)" fill="#eea886"/><path d="M1.807,101.888H0V1.733L7.014,0l.434,1.754L1.807,3.149v98.74" transform="translate(162.41 98.756)" fill="#fcfcfc"/><path d="M5.8.535S13.017.043,14.122,0,17.85,1.588,20.7,3.718s5.744,6.287,5.71,6.9a3.1,3.1,0,0,1-.757,2.488,5.946,5.946,0,0,1-2.474,1.751,3.635,3.635,0,0,1-2.38,2.584,3.168,3.168,0,0,1-2.79,2.154s-.581,1.885-2.225,1.895A24.324,24.324,0,0,0,12,19.541c-1.15-.32-5.956-4.553-10.429-8.929,0,0-5.563-4.166,4.22-10.078" transform="translate(280.152 167.183)" fill="#eea886"/><path d="M1.509,30.908l0,.017a52.472,52.472,0,0,0,3.857,10.83c5.594,11.3,23.251,15.172,29-11.519a42.3,42.3,0,0,0,.968-12.83c-1.189-12.613-9.3-16.334-9.3-16.334-6.222-1.64-17.552-2.344-22.9,5.1-3.8,5.285-3.9,15.32-1.627,24.739" transform="translate(168.597 33.256)" fill="#eea987"/><path d="M1.509,30.908l0,.017s.858.427,5.482-5.5c.928-1.189,1.236-.142,1.64-.667l5.624-.964s-2.581-5.807,4.648-6.814c7.37-1.026,16.429.428,16.429.428-1.189-12.613-9.3-16.334-9.3-16.334-6.222-1.64-17.552-2.344-22.9,5.1-3.8,5.285-3.9,15.32-1.627,24.739" transform="translate(168.597 33.256)" fill="#665249"/><path d="M6.194,2.453C6.175.587,2.959-1.676.67,1.857S2.565,10.5,4.062,9.927,6.23,5.547,6.194,2.453" transform="translate(172.92 51.769)" fill="#eea987"/><path d="M74.3,81.858S45.151,67.914,38.155,63.4C34.986,61.356,27.5,56.1,22.912,50.152c-1.511-1.96-2.993-4.014-4.405-6.047l0-.011c-5.626-8.122-10.036-15.91-10.036-15.91S-8.16,8.7,5.186.01A14.727,14.727,0,0,1,16.033,4.352c4.452,4.765,8.114,13.35,9.281,15.892S36.97,35.58,37.816,36.11,46.927,48.6,52.165,50.954c6.524,2.936,31.148,18.182,31.148,18.182L74.3,81.858" transform="translate(206.351 97.395)" fill="#e6e6e6"/><path d="M20.674,3.847s-.424,9.974.54,12.134S13.592,29.41,0,17.263c0,0,2.246-12.2,1.686-16.044S20.674,3.847,20.674,3.847" transform="translate(171.258 71.563)" fill="#eea987"/><path d="M13.756,38.368s10.259-.9,13.126-8.6c0,0-12.452-25.644-14.155-29.772L0,12.784,13.756,38.368" transform="translate(116.917 172.828)" fill="#e6e6e6"/><path d="M16.166,4.553S7.924,9.326,0,0C0,0,2.951,8.538,8.809,8.681s7.357-4.128,7.357-4.128" transform="translate(175.698 77.785)" fill="#a77860"/><path d="M3.454,29.13s18.733,2.836,33.53-.982L38.022,1.4A125.919,125.919,0,0,0,0,1.4L3.454,29.13" transform="translate(165.738 16.589)" fill="#e6e6e6"/><path d="M23.506,11.755A11.753,11.753,0,1,1,11.753,0,11.751,11.751,0,0,1,23.506,11.755" transform="translate(185.948 3.046)" fill="#e6e6e6"/><path d="M23.506,11.75A11.753,11.753,0,1,1,11.75,0,11.755,11.755,0,0,1,23.506,11.75" transform="translate(173.015 0)" fill="#e6e6e6"/><path d="M23.506,11.755A11.753,11.753,0,1,1,11.753,0,11.752,11.752,0,0,1,23.506,11.755" transform="translate(160.036 3.604)" fill="#e6e6e6"/><path d="M16.886,4.7,3.874,1.908l.041-.14A1.632,1.632,0,1,0,.662,1.5a1.621,1.621,0,0,0,.33,1.094A1.618,1.618,0,0,0,.006,3.937,1.633,1.633,0,0,0,1.5,5.7,1.623,1.623,0,0,0,3,4.927L16.227,7.765,16.886,4.7" transform="translate(161.883 181.337)" fill="#f7f7f7"/><path d="M31.733.87h0l0,0a10.672,10.672,0,0,0-8.189-.1c-8.093,0-19.464.307-20.885,1.956l-.014.018a5.486,5.486,0,0,0,1.146,9.908l.007.01s10.7,3.817,18.054,7.156a10.407,10.407,0,0,0,2.221,1.049,3.265,3.265,0,0,0,1.3.356A10.717,10.717,0,0,0,31.733.87" transform="translate(170.939 179.812)" fill="#d98a32"/><path d="M48.8,31.878c6.514-1.639,14.774-13.051,6.647-20.641S40.668-4.848,22.2,3.348-3.41,25.2,1.513,29.144,36.727,34.913,48.8,31.878" transform="translate(165.087 175.686)" fill="#e39d4d"/><path d="M16.885,3.485,3.689,1.772l.028-.14a1.63,1.63,0,1,0-3.26,0A1.608,1.608,0,0,0,.871,2.694a1.618,1.618,0,1,0,2.194,2.16l13.416,1.74.4-3.109" transform="translate(147.984 188.974)" fill="#f7f7f7"/><path d="M31.1.558v0h0a10.646,10.646,0,0,0-8.17.578C14.866,1.8,3.557,3.04,2.276,4.8l-.011.02A5.485,5.485,0,0,0,4.223,14.6l0,.011s10.984,2.922,18.586,5.644a10.585,10.585,0,0,0,2.3.865,3.3,3.3,0,0,0,1.322.247,10.865,10.865,0,0,0,1.276.08A10.719,10.719,0,0,0,31.1.558" transform="translate(157.148 184.597)" fill="#d98a32"/><path d="M7.283,3.643A3.641,3.641,0,1,1,3.641,0,3.642,3.642,0,0,1,7.283,3.643" transform="translate(201.898 196.535)" fill="#d98a32"/><path d="M7.286,3.642A3.643,3.643,0,1,1,3.643,0,3.643,3.643,0,0,1,7.286,3.642" transform="translate(211.607 192.893)" fill="#d98a32"/><path d="M14.211,8.781S5.176,2.137,8.021,1.4A11.735,11.735,0,0,1,11.586,1S12.952.234,10.226.029C7.336-.186.305.729,2.733,4.96s4.705,5.9,2.53,6.1S.9,11.59.171,12.247s1.042,6.971,2.315,6.643,13.248-2.867,13.248-6.108c0-3.113-1.523-4-1.523-4" transform="translate(203.322 184.917)" fill="#d98a32"/><path d="M0,6.852H88.51V0H0Z" transform="translate(26.728 393.343)" fill="#897050"/><path d="M0,208.463H12.592V0H0Z" transform="translate(0 222.265)" fill="#545454"/><path d="M0,208.463H12.592V0H0Z" transform="translate(345.288 222.265)" fill="#545454"/><path d="M14.042,0C.484,0,0,12.835,0,12.835H25.907S27.6,0,14.042,0" transform="translate(249.145 168.268)" fill="#6ec46c"/><path d="M7.02.037C.726-.57,0,6.455,0,6.455H13.556A6.888,6.888,0,0,0,7.02.037" transform="translate(270.696 174.648)" fill="#ca595b"/><path d="M7.024.037C.726-.57,0,6.455,0,6.455H13.561A6.891,6.891,0,0,0,7.024.037" transform="translate(277.474 174.648)" fill="#ec686b"/><path d="M28.814,10.287c4.6-11.381-13.8-13.318-15.013-5.813S0,21.667,0,21.667l22.034,4.356s2.18-4.356,6.78-15.737" transform="translate(288.37 159.435)" fill="#9a6fa0"/><path d="M11.024.01C3.77-.322,0,7.47,0,7.47S10.776,2.58,11.5,4.941s2.3,9.2,2.3,9.2S15.62,3.574,16.121,5.23s5.914,4.434,5.914,4.434C22.4,3.324,16.121.8,16.121.8s2.16-.456-5.1-.787" transform="translate(297.329 159.094)" fill="#45b93d"/><path d="M9.62,31.476H62.645a10.584,10.584,0,0,0,1.339-.96C73.036,22.968,72.815,0,72.815,0H.176C-1.521,25.422,9.62,31.476,9.62,31.476" transform="translate(244.369 181.103)" fill="#e2d4c6"/><path d="M5.305,0H0V1.14S2.441,5.38,5.867,6.965c0,0,1.454-6.965-.562-6.965" transform="translate(61.18 125.704)" fill="#f4f1ef"/><path d="M31.5,5.4A6.069,6.069,0,0,0,25.469,0H9.064A6.072,6.072,0,0,0,3.037,5.348L0,30.64H34.319L31.5,5.4" transform="translate(63.593 178.258)" fill="#e1d9d1"/><path d="M0,3.682H37.344V0H0Z" transform="translate(62.146 208.897)" fill="#898480"/><path d="M0,3.022H16.576V0H0Z" transform="translate(72.656 175.236)" fill="#b2aca5"/><path d="M0,7.416H28.927V0H0Z" transform="translate(66.485 121.662)" fill="#b2aca5"/><path d="M10.015,28.868.24,31.675,0,34.046l11.448-3.731S21.232,8.126,21.232,4.063,17.168,0,17.168,0H4.667V2.852s7.3-.13,10.586-.13,2.76,2.036,2.76,2.036l-8,24.109" transform="translate(86.411 125.371)" fill="#b2aca5"/><path d="M28.927,0H0L7.232,46.158H21.827L28.927,0" transform="translate(66.485 129.078)" fill="#f4f1ef"/><path d="M12.738,3.353V.988C12.738.1,11.752,0,11.752,0H1.6C-.279,0,.017.988.017.988V3.353H12.738" transform="translate(74.58 118.309)" fill="#b2aca5"/><path d="M18.278,9.469s1.066-4.666-3.347-5.06S11.582-.135,9.47,0s-2.3.854-3.881,4.405S.068,7.565,0,8.022,3.092,27.487,3.092,27.487H15.978l2.3-18.018" transform="translate(71.479 147.749)" fill="#81cd51"/><path d="M.389,0,0,.06,6.9,45.028l.392-.059L.389,0" transform="translate(70.541 129.643)" fill="#9e9892"/><path d="M.394,0,0,.024,2.423,37.1l.392-.025L.394,0" transform="translate(78.132 136.957)" fill="#9e9892"/><path d="M6.6,1.946C6.641.481,5.744.017,4.64,0A4.217,4.217,0,0,0,.4,3.965c-.572,8.687-.58,28.871.282,29.044C1.67,33.207,6.5,5.691,6.6,1.946" transform="translate(84.844 131.651)" fill="#fff"/><path d="M6.773,19.793h.013C12.569,19.739,13.549,0,13.549,0H0S.979,19.739,6.762,19.793h.011" transform="translate(73.978 178.258)" fill="#86817d"/><path d="M.807,52.422H15.335s.088-1.411.208-3.647c.416-7.91,1.21-26.117-.208-28.193C13.519,17.917,9.765,15.5,9.523,8.474S9.523,0,9.523,0H6.618s.24,1.454,0,8.474S2.623,17.917.807,20.582.807,52.422.807,52.422Z" transform="translate(39.943 160.157)" fill="#fc6170"/><path d="M4.325,11.884C3.981,7.309,3.923,2.251,2.455.49A1.4,1.4,0,0,0,.017,1.622C.471,4.708,1.475,12.354,1.1,17.532c-.485,6.619,3.712.809,3.227-5.648" transform="translate(49.591 179.953)" fill="#f6b9bd"/><path d="M3.441,23.449H32.1S48.219,3.3,45.539,1.93C38.551-1.653,13.82.85,13.82.85A74.766,74.766,0,0,0,5.337,1.8C-4.426,3.512,2.192,7.306,2.192,7.306V23.449H3.441" transform="translate(98.318 189.197)" fill="#b49870"/><path d="M26.324,22.721V6.417s1.535-2.852,1.291-4.734S15.1-.64,5.338,1.072,2.192,6.579,2.192,6.579V22.721H26.324" transform="translate(116.599 189.925)" fill="#f2cc95"/><path d="M1.466,18.131c1.211.031,15.095-.128,15.335-.774S17.851,3.84,18.174,2.81,18.255.163,16.721.163A73.389,73.389,0,0,0,1.368.745,1.625,1.625,0,0,0,.284,3.265a3.755,3.755,0,0,1,.7,1.66c.161,1.7-.726,13.17.484,13.206" transform="translate(122.489 192.384)" fill="#f2d7b0"/><path d="M0,16.142H18.281V0H0Z" transform="translate(100.51 196.504)" fill="#a0896a"/><path d="M.176,0C-1.521,25.422,9.62,31.476,9.62,31.476H62.645a10.584,10.584,0,0,0,1.339-.96C29.787,26.636,34.263,0,34.263,0H.176" transform="translate(244.369 181.103)" fill="#afa090"/><path d="M.807,20.582c-1.817,2.662,0,31.84,0,31.84H15.335s.088-1.411.208-3.647c-13.29.4-9.1-28.118-8.147-31.342C8.235,14.6,8.126,3.049,8.083,0H6.618s.24,1.454,0,8.474S2.623,17.917.807,20.582" transform="translate(39.943 160.157)" fill="#ff3448"/><path d="M20.4,30.64H0L3.037,5.348A6.072,6.072,0,0,1,9.064,0h1.321s.853,17.209,5.674,19.534h0c.918,4.261,2.29,8.321,4.344,11.1" transform="translate(63.593 178.258)" fill="#b1aaa4"/><path d="M28.294,3.682H0V0H21.85c1.662,2.252,3.768,3.667,6.444,3.682" transform="translate(62.146 208.897)" fill="#7f7b76"/><path d="M5.178,3.022H0V0H6.107L5.178,3.022" transform="translate(72.656 175.236)" fill="#96918b"/><path d="M5.674,19.534C.853,17.209,0,0,0,0H3.857A99.448,99.448,0,0,0,5.674,19.534" transform="translate(73.978 178.258)" fill="#7e7975"/><path d="M15.074,14.529H4.3L4.05,11.543c-1.082-.162-2.128-1.2-2.944-2.93A11.446,11.446,0,0,1,0,4.238C0,2.88,1.057,2.6,1.944,2.6a6.322,6.322,0,0,1,1.376.174l-.06-.736A1.877,1.877,0,0,1,5.126,0h9.122a1.875,1.875,0,0,1,1.867,2.033l-1.04,12.495ZM3.005,3.812a.76.76,0,0,0-.578.24,2.793,2.793,0,0,0-.368,2C2.23,8.665,3.166,9.633,3.921,9.986L3.41,3.878A1.408,1.408,0,0,0,3.005,3.812Z" transform="translate(27.506 198.05)" fill="#779398"/><path d="M8.373,14.529H4.3L4.05,11.543c-1.082-.162-2.128-1.2-2.944-2.93A11.446,11.446,0,0,1,0,4.238C0,2.88,1.057,2.6,1.944,2.6a6.322,6.322,0,0,1,1.376.174l-.06-.736A1.877,1.877,0,0,1,5.126,0H8.317c-.354,3.827-.819,10.8.056,14.527ZM3.005,3.812a.76.76,0,0,0-.578.24,2.793,2.793,0,0,0-.368,2C2.23,8.665,3.166,9.633,3.921,9.986L3.41,3.878A1.408,1.408,0,0,0,3.005,3.812Z" transform="translate(27.506 198.05)" fill="#4c8089"/><path d="M.249,10.085c.728.3,3.451.364,3.572-9.746C3.822.339.494-.627.613.7c0,0-1.09,9.082-.364,9.382" transform="translate(39.001 199.345)" fill="#a6cfd6"/><path d="M66.786,5.507A5.508,5.508,0,0,0,61.279,0H5.507A5.507,5.507,0,0,0,0,5.507v6.722H66.786V5.507" transform="translate(38.083 279.481)" fill="#c39d72"/><path d="M29.354,139.018,8.716,0H0L24.455,139.018h4.9" transform="translate(96.154 291.71)" fill="#a0815d"/><path d="M4.9,139.018,29.354,0H20.642L0,139.018H4.9" transform="translate(17.45 291.71)" fill="#a0815d"/><path d="M58.2,32.346,54.67,3.916A4.467,4.467,0,0,0,50.239,0H6.6A4.466,4.466,0,0,0,2.151,4.127L.013,32.561a4.465,4.465,0,0,0,4.451,4.8H53.769a4.466,4.466,0,0,0,4.43-5.015" transform="translate(41.972 242.12)" fill="#b29068"/><path d="M6.6,0A4.466,4.466,0,0,0,2.151,4.127L.013,32.561a4.465,4.465,0,0,0,4.451,4.8H28.022C26.588,25.639,28.92,8,30.158,0H6.6" transform="translate(41.972 242.12)" fill="#a58560"/><path d="M5.507,0A5.507,5.507,0,0,0,0,5.507v6.722H27.152C25.938,6.859,28.076,0,28.076,0H5.507" transform="translate(38.083 279.481)" fill="#a58560"/><path d="M0,6.294H86.686V0H0Z" transform="translate(146.735 206.285)" fill="#b18450"/><path d="M44.674,0H0V6.294H47.572L44.674,0" transform="translate(146.735 206.285)" fill="#997345"/><path d="M0,24.216H357.88V0H0Z" transform="translate(0 212.579)" fill="#ce5119"/><path d="M0,13.64H357.88V0H0Z" transform="translate(0 223.154)" fill="#a83800"/><path d="M5.493,0S8.352,5.49,8.6,9.175c.053.833-.046,1.652-.8,2.016S5.559,10.93,4.2,8.614A22.606,22.606,0,0,0,.024,3.926S-.675,1.138,5.493,0" transform="translate(289.03 167.324)" fill="#eea886"/><path d="M4.627,2.312A2.314,2.314,0,1,1,2.315,0,2.314,2.314,0,0,1,4.627,2.312" transform="translate(167.328 121.28)" fill="#a1a1a1"/><path d="M4.627,2.312A2.314,2.314,0,1,1,2.314,0,2.313,2.313,0,0,1,4.627,2.312" transform="translate(192.292 121.28)" fill="#a1a1a1"/><path d="M4.627,2.312A2.314,2.314,0,1,1,2.315,0,2.314,2.314,0,0,1,4.627,2.312" transform="translate(167.328 135.743)" fill="#a1a1a1"/><path d="M4.627,2.312A2.314,2.314,0,1,1,2.314,0,2.313,2.313,0,0,1,4.627,2.312" transform="translate(192.292 135.743)" fill="#a1a1a1"/><path d="M4.627,2.312A2.314,2.314,0,1,1,2.315,0,2.317,2.317,0,0,1,4.627,2.312" transform="translate(167.328 150.382)" fill="#a1a1a1"/><path d="M4.627,2.312A2.314,2.314,0,1,1,2.314,0,2.317,2.317,0,0,1,4.627,2.312" transform="translate(192.292 150.382)" fill="#a1a1a1"/><path d="M4.627,2.312A2.314,2.314,0,1,1,2.315,0,2.313,2.313,0,0,1,4.627,2.312" transform="translate(167.328 165.023)" fill="#a1a1a1"/><path d="M4.627,2.312A2.314,2.314,0,1,1,2.314,0,2.312,2.312,0,0,1,4.627,2.312" transform="translate(192.292 165.023)" fill="#a1a1a1"/></g></g></svg>