<svg xmlns="http://www.w3.org/2000/svg" width="184.838" height="184.838" viewBox="0 0 184.838 184.838"><g transform="translate(-627.581 -47.581)"><path d="M64,128a64,64,0,1,0-43.172-16.753" transform="translate(720 230.51) rotate(-135)" fill="none" stroke="#ff4c54" stroke-miterlimit="10" stroke-width="2.7"/><g transform="translate(693 120)"><path d="M49.489,39.6H4.961A5.129,5.129,0,0,1,0,34.328V29.363a1.193,1.193,0,0,1,1.154-1.226H3.807a25.676,25.676,0,0,1,6.6-16.5A22.79,22.79,0,0,1,25.61,4.107V3.371H24.052a1.517,1.517,0,0,1-1.167-.544,1.828,1.828,0,0,1-.39-1.479A1.686,1.686,0,0,1,24.11,0h6.23a1.516,1.516,0,0,1,1.166.543,1.83,1.83,0,0,1,.391,1.48,1.686,1.686,0,0,1-1.615,1.348h-1.5v.735a22.868,22.868,0,0,1,15.257,7.533,25.645,25.645,0,0,1,6.6,16.5H53.3a1.193,1.193,0,0,1,1.154,1.226v4.965A5.129,5.129,0,0,1,49.489,39.6ZM3.173,31.508v2.82a1.849,1.849,0,0,0,1.788,1.9H49.547a1.849,1.849,0,0,0,1.788-1.9v-2.82ZM27.225,7.417c-10.946,0-19.839,9.1-20.246,20.72H47.471C47.064,16.519,38.172,7.417,27.225,7.417Z" fill="#ff4c54"/></g></g></svg>