<svg xmlns="http://www.w3.org/2000/svg" xmlns:xlink="http://www.w3.org/1999/xlink" width="248.036" height="88.293" viewBox="0 0 248.036 88.293"><defs><clipPath id="a"><path d="M0,40H163.435V0H0Z" transform="translate(0 0.362)" fill="none"/></clipPath><clipPath id="b"><path d="M29.724,88.293A29.717,29.717,0,0,1,.145,61.625a2.024,2.024,0,0,1-.041-.44C.035,60.365,0,59.528,0,58.7A29.742,29.742,0,0,1,50.275,37.326,77.019,77.019,0,0,1,64.824,33.95l.55,4.082A67.564,67.564,0,0,0,42.032,45.4c-4.115,2.258-11.195,7.821-8.539,12.712a4.36,4.36,0,0,0,3.248,2.264,7.6,7.6,0,0,0,1.392.123,13.31,13.31,0,0,0,7.881-2.909c3.593-3.051,6.49-8.689,5.072-13.563L55.06,42.88c1.4,4.809,0,12.443-6.364,17.843a17.593,17.593,0,0,1-10.584,3.89,11.658,11.658,0,0,1-2.13-.189,8.477,8.477,0,0,1-6.128-4.353c-4.192-7.72,4.428-15.122,10.182-18.278a61.573,61.573,0,0,1,5.886-2.821A25.613,25.613,0,0,0,4.137,58.7c0,.561.018,1.124.054,1.675C5.919,62.2,15.271,71.294,29.724,71.294a35.5,35.5,0,0,0,19.023-5.659,33.434,33.434,0,0,0,6.929-5.744,2.075,2.075,0,0,1,2.381-.586,2.049,2.049,0,0,1,1.27,2.087,29.675,29.675,0,0,1-29.6,26.9ZM5.582,67.144a25.625,25.625,0,0,0,48.3-.022,39.353,39.353,0,0,1-48.3.022ZM34.556,24.82a1.636,1.636,0,0,1-.336-.034,5.066,5.066,0,0,1-3.572-3.326,7.789,7.789,0,0,1,1.284-7.6,3.459,3.459,0,0,0,.729-3.246,1.809,1.809,0,0,1,.51-2.5A1.84,1.84,0,0,1,34.2,7.8a1.9,1.9,0,0,1,1.557.815c.75,1.078,1.52,4.322-.89,7.469a4.094,4.094,0,0,0-.78,4.045,1.83,1.83,0,0,0,.8,1.039,1.841,1.841,0,0,1,1.486,2.136A1.854,1.854,0,0,1,34.556,24.82Zm-8.848-.088a1.954,1.954,0,0,1-.421-.049,6.353,6.353,0,0,1-5.13-6.753,15.08,15.08,0,0,1,2.213-6.767c.334-.58.691-1.163,1.028-1.706l.08-.13c.49-.8,1-1.625,1.421-2.464a13.539,13.539,0,0,0,1.1-3.046,1.524,1.524,0,0,0,.048-.293l-.016-.007L25.995,3.5A1.839,1.839,0,1,1,27.579.182a3.661,3.661,0,0,1,2.012,4.469,17.239,17.239,0,0,1-1.4,3.87c-.492.977-1.068,1.914-1.625,2.82l-.154.25-.042.069c-.266.433-.541.879-.792,1.321a11.5,11.5,0,0,0-1.733,5.06A2.718,2.718,0,0,0,26.132,21.1a1.838,1.838,0,0,1-.424,3.63Z" transform="translate(0.399 0.046)" fill="none"/></clipPath><linearGradient id="c" x1="0.054" y1="0.844" x2="0.834" y2="0.269" gradientUnits="objectBoundingBox"><stop offset="0" stop-color="#ff3146"/><stop offset="1" stop-color="#ff5e5e"/></linearGradient><clipPath id="d"><path d="M5.073,1.146C6.49,6.02,3.594,11.659,0,14.709H0l2.683,3.135C9.049,12.44,10.444,4.807,9.047,0h0Z" transform="translate(0.288 0.062)" fill="none"/></clipPath></defs><g transform="translate(-0.399 -0.046)"><g transform="translate(85 28.58)"><path d="M14.716,7.649a4.142,4.142,0,0,0-4.106-2.671,5,5,0,0,0-4.96,5.3,5.029,5.029,0,0,0,4.96,5.383A4.278,4.278,0,0,0,14.8,12.629H20.2c-.812,5.221-5.244,7.852-9.756,7.892C5.285,20.562,0,17.162,0,10.281,0,3.44,5.326,0,10.488,0c4.431,0,8.741,2.55,9.634,7.649Z" transform="translate(0 19.745)" fill="#323232"/><path d="M10.447,20.481a10.889,10.889,0,0,1-7.175-2.555A9.83,9.83,0,0,1,0,10.241,9.876,9.876,0,0,1,3.206,2.6,10.74,10.74,0,0,1,10.284,0h.091a10.809,10.809,0,0,1,7.155,2.555,9.862,9.862,0,0,1,3.243,7.686,9.889,9.889,0,0,1-3.227,7.685A10.688,10.688,0,0,1,10.447,20.481Zm0-15.5c-2.31,0-4.8,1.647-4.8,5.262,0,3.643,2.423,5.3,4.675,5.3h.08a4.547,4.547,0,0,0,3.248-1.33,5.471,5.471,0,0,0,1.469-3.972C15.123,6.626,12.7,4.979,10.447,4.979Z" transform="translate(22.572 19.784)" fill="#323232"/><path d="M10.447,20.481a10.889,10.889,0,0,1-7.175-2.555A9.83,9.83,0,0,1,0,10.241,9.875,9.875,0,0,1,3.207,2.6,10.742,10.742,0,0,1,10.285,0h.091A10.808,10.808,0,0,1,17.53,2.555a9.862,9.862,0,0,1,3.243,7.686,9.889,9.889,0,0,1-3.227,7.685A10.688,10.688,0,0,1,10.447,20.481Zm0-15.5c-2.31,0-4.8,1.647-4.8,5.262,0,3.643,2.423,5.3,4.675,5.3h.08a4.547,4.547,0,0,0,3.248-1.33,5.471,5.471,0,0,0,1.469-3.972C15.123,6.626,12.7,4.979,10.447,4.979Z" transform="translate(45.871 19.784)" fill="#323232"/><path d="M7.033,17.243c4.513,0,5.651-3.2,5.651-7.205H18.05c.122,4.13-.814,7.61-4.675,9.634l5.61,9.309v.566H13.252l-4.675-8.1a5.076,5.076,0,0,1-1.626.242H5.65v7.853H0V0H5.65V17.243Z" transform="translate(70.308 10.274)" fill="#323232"/><path d="M0,40H163.435V0H0Z" transform="translate(0 0.362)" fill="none"/><g clip-path="url(#a)"><path d="M6.179,28.375H.488V9.108H6.179V28.374ZM3.364,6.519A3.516,3.516,0,0,1,1.053,5.7,3.141,3.141,0,0,1,0,3.239,3.108,3.108,0,0,1,1.033.8,3.487,3.487,0,0,1,3.323,0h.093A3.169,3.169,0,0,1,6.667,3.239a3.18,3.18,0,0,1-1,2.429,3.4,3.4,0,0,1-2.215.85Z" transform="translate(91.896 11.486)" fill="#323232"/><path d="M15.408,19.955V8.662a3.683,3.683,0,0,0-3.7-4.169,4.068,4.068,0,0,0-4.147,4.29V19.955H1.871V6.476c0-1.942,0-2.55-1.871-2.55V.405C2.6-.04,7.155-.485,7.155,3.036,8.253.769,11.139,0,13.416,0c5.529,0,7.723,3.805,7.723,8.662V19.955Z" transform="translate(101.551 19.906)" fill="#323232"/><path d="M7.123,20.36a7.754,7.754,0,0,1-4.883-1.645A5.845,5.845,0,0,1,.008,14.248,6.383,6.383,0,0,1,1.65,9.359,8.12,8.12,0,0,1,7.61,7.2a10.209,10.209,0,0,1,5.2,1.255V7.124c0-2.43-3.056-2.793-4.878-2.793A11.191,11.191,0,0,0,2.285,5.5L1.553,1.457A17.765,17.765,0,0,1,8.912,0a11.988,11.988,0,0,1,6.565,1.533,6.4,6.4,0,0,1,2.785,5.753v7.149a4.612,4.612,0,0,0,.191,1.771c.2.445.618.643,1.341.643.093,0,.193,0,.3-.01L20.131,20a11.777,11.777,0,0,1-2.474.3,4.348,4.348,0,0,1-2.644-.706A3.038,3.038,0,0,1,13.911,17,5.558,5.558,0,0,1,11.02,19.59,10,10,0,0,1,7.123,20.36Zm1.5-9.512a3.528,3.528,0,0,0-2.515,1.1,2.482,2.482,0,0,0-.533,1.934,2.455,2.455,0,0,0,2.683,2.1c1.662,0,4.214-.8,4.431-3V11.981A7.419,7.419,0,0,0,8.627,10.848Z" transform="translate(125.952 19.866)" fill="#323232"/><path d="M9.269,6.072H15.65v4.25H9.269v7.569c0,4.048,3.374,4.249,6.627,3.076l.529,4.29C9.675,27.12,3.7,26.027,3.7,18.013V10.322L0,9.958V6.072H4.106L4.716,0H9.269Z" transform="translate(147.011 14.32)" fill="#323232"/></g></g><g transform="translate(0)"><path d="M29.724,88.293A29.717,29.717,0,0,1,.145,61.625a2.024,2.024,0,0,1-.041-.44C.035,60.365,0,59.528,0,58.7A29.742,29.742,0,0,1,50.275,37.326,77.019,77.019,0,0,1,64.824,33.95l.55,4.082A67.564,67.564,0,0,0,42.032,45.4c-4.115,2.258-11.195,7.821-8.539,12.712a4.36,4.36,0,0,0,3.248,2.264,7.6,7.6,0,0,0,1.392.123,13.31,13.31,0,0,0,7.881-2.909c3.593-3.051,6.49-8.689,5.072-13.563L55.06,42.88c1.4,4.809,0,12.443-6.364,17.843a17.593,17.593,0,0,1-10.584,3.89,11.658,11.658,0,0,1-2.13-.189,8.477,8.477,0,0,1-6.128-4.353c-4.192-7.72,4.428-15.122,10.182-18.278a61.573,61.573,0,0,1,5.886-2.821A25.613,25.613,0,0,0,4.137,58.7c0,.561.018,1.124.054,1.675C5.919,62.2,15.271,71.294,29.724,71.294a35.5,35.5,0,0,0,19.023-5.659,33.434,33.434,0,0,0,6.929-5.744,2.075,2.075,0,0,1,2.381-.586,2.049,2.049,0,0,1,1.27,2.087,29.675,29.675,0,0,1-29.6,26.9ZM5.582,67.144a25.625,25.625,0,0,0,48.3-.022,39.353,39.353,0,0,1-48.3.022ZM34.556,24.82a1.636,1.636,0,0,1-.336-.034,5.066,5.066,0,0,1-3.572-3.326,7.789,7.789,0,0,1,1.284-7.6,3.459,3.459,0,0,0,.729-3.246,1.809,1.809,0,0,1,.51-2.5A1.84,1.84,0,0,1,34.2,7.8a1.9,1.9,0,0,1,1.557.815c.75,1.078,1.52,4.322-.89,7.469a4.094,4.094,0,0,0-.78,4.045,1.83,1.83,0,0,0,.8,1.039,1.841,1.841,0,0,1,1.486,2.136A1.854,1.854,0,0,1,34.556,24.82Zm-8.848-.088a1.954,1.954,0,0,1-.421-.049,6.353,6.353,0,0,1-5.13-6.753,15.08,15.08,0,0,1,2.213-6.767c.334-.58.691-1.163,1.028-1.706l.08-.13c.49-.8,1-1.625,1.421-2.464a13.539,13.539,0,0,0,1.1-3.046,1.524,1.524,0,0,0,.048-.293l-.016-.007L25.995,3.5A1.839,1.839,0,1,1,27.579.182a3.661,3.661,0,0,1,2.012,4.469,17.239,17.239,0,0,1-1.4,3.87c-.492.977-1.068,1.914-1.625,2.82l-.154.25-.042.069c-.266.433-.541.879-.792,1.321a11.5,11.5,0,0,0-1.733,5.06A2.718,2.718,0,0,0,26.132,21.1a1.838,1.838,0,0,1-.424,3.63Z" transform="translate(0.399 0.046)" fill="none"/><g clip-path="url(#b)"><path d="M29.724,88.293A29.717,29.717,0,0,1,.145,61.625a2.024,2.024,0,0,1-.041-.44C.035,60.365,0,59.528,0,58.7A29.742,29.742,0,0,1,50.275,37.326,77.019,77.019,0,0,1,64.824,33.95l.55,4.082A67.564,67.564,0,0,0,42.032,45.4c-4.115,2.258-11.195,7.821-8.539,12.712a4.36,4.36,0,0,0,3.248,2.264,7.6,7.6,0,0,0,1.392.123,13.31,13.31,0,0,0,7.881-2.909c3.593-3.051,6.49-8.689,5.072-13.563L55.06,42.88c1.4,4.809,0,12.443-6.364,17.843a17.593,17.593,0,0,1-10.584,3.89,11.658,11.658,0,0,1-2.13-.189,8.477,8.477,0,0,1-6.128-4.353c-4.192-7.72,4.428-15.122,10.182-18.278a61.573,61.573,0,0,1,5.886-2.821A25.613,25.613,0,0,0,4.137,58.7c0,.561.018,1.124.054,1.675C5.919,62.2,15.271,71.294,29.724,71.294a35.5,35.5,0,0,0,19.023-5.659,33.434,33.434,0,0,0,6.929-5.744,2.075,2.075,0,0,1,2.381-.586,2.049,2.049,0,0,1,1.27,2.087,29.675,29.675,0,0,1-29.6,26.9ZM5.582,67.144a25.625,25.625,0,0,0,48.3-.022,39.353,39.353,0,0,1-48.3.022ZM34.556,24.82a1.636,1.636,0,0,1-.336-.034,5.066,5.066,0,0,1-3.572-3.326,7.789,7.789,0,0,1,1.284-7.6,3.459,3.459,0,0,0,.729-3.246,1.809,1.809,0,0,1,.51-2.5A1.84,1.84,0,0,1,34.2,7.8a1.9,1.9,0,0,1,1.557.815c.75,1.078,1.52,4.322-.89,7.469a4.094,4.094,0,0,0-.78,4.045,1.83,1.83,0,0,0,.8,1.039,1.841,1.841,0,0,1,1.486,2.136A1.854,1.854,0,0,1,34.556,24.82Zm-8.848-.088a1.954,1.954,0,0,1-.421-.049,6.353,6.353,0,0,1-5.13-6.753,15.08,15.08,0,0,1,2.213-6.767c.334-.58.691-1.163,1.028-1.706l.08-.13c.49-.8,1-1.625,1.421-2.464a13.539,13.539,0,0,0,1.1-3.046,1.524,1.524,0,0,0,.048-.293l-.016-.007L25.995,3.5A1.839,1.839,0,1,1,27.579.182a3.661,3.661,0,0,1,2.012,4.469,17.239,17.239,0,0,1-1.4,3.87c-.492.977-1.068,1.914-1.625,2.82l-.154.25-.042.069c-.266.433-.541.879-.792,1.321a11.5,11.5,0,0,0-1.733,5.06A2.718,2.718,0,0,0,26.132,21.1a1.838,1.838,0,0,1-.424,3.63Z" transform="translate(0.399 0.046)" fill="url(#c)"/></g></g><g transform="translate(46.125 42.864)"><path d="M5.073,1.146C6.49,6.02,3.594,11.659,0,14.709H0l2.683,3.135C9.049,12.44,10.444,4.807,9.047,0h0Z" transform="translate(0.288 0.062)" fill="none"/><g clip-path="url(#d)"><path d="M5.073,1.146C6.49,6.02,3.594,11.659,0,14.709H0l2.683,3.135C9.049,12.44,10.444,4.807,9.047,0h0Z" transform="translate(0.288 0.062)" fill="none"/></g></g></g></svg>