<svg xmlns="http://www.w3.org/2000/svg" xmlns:xlink="http://www.w3.org/1999/xlink" width="397.138" height="366.055" viewBox="0 0 397.138 366.055"><defs><clipPath id="a"><path d="M0,209.729H243.877V0H0Z" transform="translate(0 0.072)" fill="none"/></clipPath></defs><g transform="translate(-100 -2928)"><g transform="translate(100 2999)"><path d="M0,159.291H243.877V0H0Z" transform="translate(0 50.637)" fill="#fff"/><path d="M0,159.291H125.978V0H0Z" transform="translate(0 50.637)" fill="#f1f1f1"/><path d="M0,30.081H30.134V0H0Z" transform="translate(63.479 79.022)" fill="#fbc03f"/><path d="M0,30.081H30.134V0H0Z" transform="translate(106.169 79.022)" fill="#f3a41c"/><path d="M0,30.081H30.135V0H0Z" transform="translate(148.858 79.022)" fill="#fbc03f"/><path d="M0,30.081H30.134V0H0Z" transform="translate(191.548 79.022)" fill="#f3a41c"/><path d="M0,30.081H30.134V0H0Z" transform="translate(63.479 120.8)" fill="#f3a41c"/><path d="M0,30.081H30.134V0H0Z" transform="translate(20.79 120.8)" fill="#fbc03f"/><path d="M0,30.081H30.134V0H0Z" transform="translate(106.169 120.8)" fill="#fbc03f"/><path d="M0,30.081H30.135V0H0Z" transform="translate(148.858 120.8)" fill="#fbc03f"/><path d="M0,30.081H30.134V0H0Z" transform="translate(191.548 120.8)" fill="#f3a41c"/><path d="M0,30.081H30.134V0H0Z" transform="translate(63.479 162.579)" fill="#fbc03f"/><path d="M0,30.081H30.134V0H0Z" transform="translate(20.79 162.579)" fill="#fbc03f"/><path d="M0,30.081H30.134V0H0Z" transform="translate(106.169 162.579)" fill="#fbc03f"/><path d="M0,30.081H30.135V0H0Z" transform="translate(148.858 162.579)" fill="#f3a41c"/><path d="M0,30.081H30.134V0H0Z" transform="translate(191.548 162.579)" fill="#fbc03f"/><g transform="translate(0 0.127)"><path d="M39.563,1.915c-2.1.542-3.908,2.039-5.552,3.387-1.747,1.433-3.425,2.942-5.09,4.468q-3.309,3.03-6.482,6.2-.513-.477-1.034-.947c-3.2-2.9-6.536-5.662-9.954-8.309C8.234,4.219,4.741,1.269.824.029A.66.66,0,0,0,.086.988c2.026,3.4,5.513,6.021,8.46,8.625,3.172,2.8,6.345,5.6,9.4,8.528.4.388.8.785,1.206,1.18q-4.3,4.474-8.362,9.161c-1.423,1.644-2.813,3.3-4.131,5.032A42.515,42.515,0,0,0,2.633,39.2a1.458,1.458,0,0,0,2.281,1.756,58.686,58.686,0,0,0,4.4-4.763c1.457-1.609,2.88-3.244,4.32-4.867q4.113-4.631,8.462-9.045c1.514,1.566,3,3.164,4.43,4.8,2.739,3.129,5.026,6.754,8.06,9.6,1.26,1.181,3.728.032,3.083-1.791-1.446-4.083-4.42-7.475-7.226-10.712-1.584-1.827-3.241-3.581-4.953-5.281q3.171-3.111,6.435-6.123c1.6-1.471,3.226-2.908,4.824-4.379a16.821,16.821,0,0,0,4.128-4.767,1.178,1.178,0,0,0-1.314-1.707" transform="translate(57.13 73.123)" fill="#5f5ea9"/><path d="M39.563,1.914c-2.1.542-3.908,2.04-5.552,3.388-1.747,1.433-3.425,2.942-5.089,4.468q-3.309,3.028-6.483,6.2-.513-.477-1.033-.947c-3.2-2.9-6.537-5.662-9.954-8.311C8.234,4.219,4.74,1.269.824.029A.66.66,0,0,0,.085.988C2.111,4.388,5.6,7.01,8.546,9.612c3.171,2.8,6.344,5.6,9.4,8.528.4.39.8.786,1.206,1.181q-4.3,4.472-8.362,9.161c-1.423,1.642-2.813,3.3-4.131,5.032A42.353,42.353,0,0,0,2.634,39.2a1.457,1.457,0,0,0,2.279,1.755,58.687,58.687,0,0,0,4.4-4.763c1.457-1.608,2.88-3.243,4.32-4.866q4.111-4.632,8.462-9.047c1.514,1.567,3,3.165,4.43,4.8,2.741,3.128,5.026,6.753,8.06,9.6,1.26,1.181,3.729.032,3.083-1.791-1.446-4.082-4.42-7.475-7.226-10.712C28.858,22.345,27.2,20.59,25.49,18.89q3.171-3.109,6.436-6.121c1.6-1.471,3.225-2.91,4.823-4.379a16.849,16.849,0,0,0,4.129-4.768,1.179,1.179,0,0,0-1.315-1.707" transform="translate(143.067 116.294)" fill="#5f5ea9"/><path d="M0,209.729H243.877V0H0Z" transform="translate(0 0.072)" fill="none"/><g clip-path="url(#a)"><path d="M0,45.082H243.877V0H0Z" transform="translate(0 13.442)" fill="#ff5f6f"/><path d="M0,45.082H125.978V0H0Z" transform="translate(0 13.442)" fill="#ff3448"/><path d="M24.274,12.116A12.137,12.137,0,1,1,12.137,0,12.126,12.126,0,0,1,24.274,12.116" transform="translate(18.558 25.975)" fill="#fff"/><path d="M24.274,12.116A12.137,12.137,0,1,1,12.138,0,12.125,12.125,0,0,1,24.274,12.116" transform="translate(202.708 25.975)" fill="#fff"/><path d="M14.23,7.1V38.854a7.107,7.107,0,0,1-6.981,7.1c-.044,0-.089,0-.133,0A7.112,7.112,0,0,1,0,38.854V7.1A7.012,7.012,0,0,1,.408,4.734,7.113,7.113,0,0,1,7.116,0C7.16,0,7.2,0,7.249,0A7.1,7.1,0,0,1,14.23,7.1" transform="translate(23.585 0.072)" fill="#fbc03f"/><path d="M7.249,0V45.954c-.044,0-.089,0-.133,0A7.112,7.112,0,0,1,0,38.854V7.1A7.007,7.007,0,0,1,.408,4.734,7.111,7.111,0,0,1,7.116,0C7.16,0,7.2,0,7.249,0" transform="translate(23.585 0.072)" fill="#f3a41c"/><path d="M14.23,7.1V38.854a7.107,7.107,0,0,1-6.98,7.1c-.046,0-.09,0-.135,0A7.112,7.112,0,0,1,0,38.854V7.1A7.1,7.1,0,0,1,7.116,0C7.16,0,7.2,0,7.25,0a7.112,7.112,0,0,1,6.573,4.732A7.011,7.011,0,0,1,14.23,7.1" transform="translate(207.457 0.072)" fill="#fbc03f"/><path d="M7.249,0V45.954c-.044,0-.089,0-.133,0A7.111,7.111,0,0,1,0,38.854V7.1A7.036,7.036,0,0,1,.407,4.734,7.114,7.114,0,0,1,7.116,0C7.16,0,7.2,0,7.249,0" transform="translate(207.457 0.072)" fill="#f3a41c"/></g></g></g><g transform="translate(315 2928)"><path d="M2.251,8.439c-.474-1.66.238-3.516.417-4.281C2.908,3.135,3-.178,3.765.008c1.29.309.991,5.6,1.151,6.721S8.484,4.084,9.65,3.885s7.091,5.807,4.449,8.121-6.28,3.26-6.663,3.757a20.833,20.833,0,0,1-2.191,1.874L0,12.988S2.808,10.389,2.251,8.439Z" transform="translate(131.067 96.283)" fill="#eea987"/><path d="M9.488,0c.937.041,1.265.523.491,1.171S1.9,7.745,1.9,7.745s11.427-6.06,12.2-6.194c.454-.078.8.788.415,1.17S3.494,9.793,3.494,9.793s10.68-5.636,11.36-5.557a.832.832,0,0,1,.26,1.529c-.764.471-10.38,6.263-10.38,6.263S12.765,8.416,13.3,8.822c.327.25.791.8-1.313,1.668a75.189,75.189,0,0,0-6.673,3.636L0,6.515S8.553-.041,9.488,0Z" transform="translate(139.973 94.049)" fill="#eea987"/><path d="M18.6,19.336c-.561,21.524-2.635,25.315,1.349,40.526S0,51.226,0,51.226L.036.068S19.159-2.188,18.6,19.336Z" transform="translate(71.617 30.127)" fill="#e8734d"/><path d="M.1,29.286c1.043,1.7,9.033,1.936,13.9,0s4.979-14.439,7.179-19.814C22.094,7.222,20.123.579,17.352.1a11.234,11.234,0,0,0-5.784.932S14.441,8.6,6.654,16.923C6.654,16.923-.943,27.6.1,29.286Z" transform="translate(2.671 335.405)" fill="#363a5e"/><path d="M5.188,9.985c-.482,3.6-5.412,11.239-5.18,12.207s6.484,1.842,9.031-.649,4.189-9.74,4.748-14.076a36.193,36.193,0,0,1,1.182-6.031S9.8-1.558,7.371,1.1A52.367,52.367,0,0,0,5.188,9.985Z" transform="translate(6.814 335.251)" fill="#eea886"/><path d="M.1,29.281c1.042,1.7,9.032,1.936,13.9,0s4.978-14.439,7.177-19.814C22.1,7.217,20.126.574,17.354.095a11.979,11.979,0,0,0-6.02,1.036s2.837,7.642-4.951,15.964C6.383,17.095-.94,27.59.1,29.281Z" transform="translate(69.071 335.41)" fill="#363a5e"/><path d="M5.683,9.983C4.756,13.486-.225,21.46.008,22.428s6.483,1.842,9.031-.649S13.556,12.071,13.787,7.7A24.138,24.138,0,0,0,13.207.49S9.618-1.133,7.187,1.526A74.349,74.349,0,0,1,5.683,9.983Z" transform="translate(73.218 335.015)" fill="#eea886"/><path d="M22.962,62.687c-1.5,7.969-5.689,46.563-6.139,53.123s-6.8,31.29-6.5,33.631S0,198.239,0,198.239s7.525.813,10.524-.44c2.05-.86,18.52-42.757,18.52-54.473,0-16.2,9.045-37.347,10.358-41.033C52.308,66,54.676,57.39,56.473,55.2c0,0,.27,2.959.886,7.878.7,5.653,3.784,46.042,5.133,51.354s.3,23.28,1.048,32.343,2.137,50.4,2.137,50.4,6.759.294,9.737-1.483c1-.594,4.445-44.415,4.6-55.2s.309-25.651.6-30.314c2.775-44.673,9.591-51.054-1.147-82.67-20.1-59.2-48.483-4.442-48.483-4.442S24.459,54.722,22.962,62.687Z" transform="translate(12.829 139.707)" fill="#313657"/><path d="M1.392,11.173H0V2.537L1.392,0Z" transform="translate(22.656 343.938)" fill="#363a5e"/><path d="M1.389,11.173H0V2.537L1.389,0Z" transform="translate(89.061 343.938)" fill="#363a5e"/><path d="M3.138,13.668c.063-.227.122-.453.18-.68.16-.621.3-1.244.439-1.865q.109-.528.206-1.053a14.776,14.776,0,0,0,0-6.9c-1.983-5.859,12.44-1.8,12.44-1.8s-2.8,15.5,0,20.73S0,22.64,0,22.64A84.949,84.949,0,0,0,3.138,13.668Z" transform="translate(63.136 64.826)" fill="#eea886"/><path d="M43.362,1.136,30.184,0A117.744,117.744,0,0,0,14.093,3.942C7.062,6.377,0,21.738,0,21.738S10.559,49.53,12.993,58.094s-6.21,33.388-6.21,33.388c16.473,15.993,53.6.893,53.6.893S43.56,15.732,53.052,3.848C54.658,1.836,43.362,1.136,43.362,1.136Z" transform="translate(34.55 83.362)" fill="#e6e6e6"/><path d="M1.017,21.031C-.639,7.2.226,0,.226,0A51.966,51.966,0,0,0,3.235,14.856S2.641,16.106,1.017,21.031Z" transform="translate(89.741 108.315)" fill="#cfbeb8"/><path d="M0,14.015,1.6.7s9.044-1.953,13.912.674Z" transform="translate(63.136 82.664)" fill="#eea886"/><path d="M28.692,91.892,13.084,96.167a3.885,3.885,0,0,1-5.071-3C5.959,81.65.635,50.769.032,37.076-.715,20.067,11.669,0,11.669,0,33.681,3.777,27.647,37.076,27.647,37.076s-.8,2.1-1.867,5.377v0c-.271.824-.553,1.72-.85,2.679-.753,2.462-1.563,5.322-2.292,8.331C20.505,62.312,28.692,91.892,28.692,91.892Z" transform="translate(66.24 83.845)" fill="#e6e6e6"/><path d="M31.046,0s-11.273,1.715-17,4.574S0,24.953,0,24.953L11.692,41.159c.017,14.555-2.759,50.323-2.759,50.323L16.6,93.941a2.384,2.384,0,0,0,3.285-2.168c.162-10.393.642-41.18.889-53.194.3-14.554,10.684-38.1,10.684-38.1-.229.079-.455.162-.682.244Z" transform="translate(32.4 83.362)" fill="#e6e6e6"/><path d="M4.033,13.235,0,15.776,9.4,2.6,12.372,0Z" transform="translate(53.173 80.903)" fill="#fae6de"/><path d="M5.93,15.776l1.6-13.317L8.339,0,0,13.235Z" transform="translate(57.206 80.903)" fill="#d6c5be"/><path d="M39.313,21.765c4.577-3.942,10.432-8.93,10.432-8.93L55.305,21S41.852,32.829,34.7,39.85c0,0-9.051,9.716-11.073,8.857s-9.236-11.32-15-21.37S.294,10.863,0,6.486,14.209,0,14.209,0L25.557,24.783A36.749,36.749,0,0,0,28.6,29.4s2.553-1.45,3.892-2.347C34.936,25.039,36.371,24.3,39.313,21.765Z" transform="translate(82.823 94.049)" fill="#e6e6e6"/><path d="M1.879,13.956a42.246,42.246,0,0,0,.549,6.654C2.983,23.572-.547,31.72.074,32.215A18.833,18.833,0,0,0,3.4,33.556s1.921,9.56,5.168,9.852,15.791-.839,22.874-11.65S42.321,3.551,21.844.2C16.772-.631,5.167.639,1.879,13.956Z" transform="translate(51.811 32.177)" fill="#eea886"/><path d="M15.717,24.629C23.8,26.709,28.085,35.79,28.085,35.79s14.3-14.267,5.671-28.116S.012,0,0,15.96C0,15.96,7.632,22.55,15.717,24.629Z" transform="translate(53.69 30.173)" fill="#e8734d"/><path d="M7.471,29.315s4.148-.61,11.943,1.773c0,0-3.733-39.794-19.414-29.337C0,1.751,8.463,23.961,7.471,29.315Z" transform="translate(70.897 53.527)" fill="#e8734d"/><path d="M0,15.1,15.232,0,4.483,12.954Z" transform="translate(63.136 81.58)" fill="#d6c5be"/><path d="M0,12.954,5.88,18.2,12.23,2.691,10.749,0Z" transform="translate(67.619 81.58)" fill="#fae6de"/><path d="M0,6.3c.16-.621.305-1.244.439-1.865Q.549,3.9.645,3.379S6.077,2.049,8.963,0C8.9.108,6.563,3.735,0,6.3Z" transform="translate(66.454 71.517)" fill="#a77860"/><path d="M18.307,13S.281,11.062,0,.081C0,.081,14.176-1.842,18.307,13Z" transform="translate(79.849 84.19)" fill="#e6e6e6"/><path d="M0,70.922V1.721L9.3,0l.274,1.483L1.506,2.974V70.922Z" transform="translate(49.281 100.229)" fill="#fcfcfc"/><path d="M1.9,3.807a1.9,1.9,0,1,1,1.9-1.9A1.9,1.9,0,0,1,1.9,3.807Z" transform="translate(53.338 109.872)" fill="#a1a1a1"/><path d="M1.9,3.807a1.9,1.9,0,1,1,1.9-1.9A1.9,1.9,0,0,1,1.9,3.807Z" transform="translate(73.875 109.872)" fill="#a1a1a1"/><path d="M1.9,3.8a1.9,1.9,0,1,1,1.9-1.9A1.9,1.9,0,0,1,1.9,3.8Z" transform="translate(53.338 121.77)" fill="#a1a1a1"/><path d="M1.9,3.8a1.9,1.9,0,1,1,1.9-1.9A1.9,1.9,0,0,1,1.9,3.8Z" transform="translate(73.875 121.77)" fill="#a1a1a1"/><path d="M1.9,3.807a1.9,1.9,0,1,1,1.9-1.9A1.9,1.9,0,0,1,1.9,3.807Z" transform="translate(53.338 133.813)" fill="#a1a1a1"/><path d="M1.9,3.807a1.9,1.9,0,1,1,1.9-1.9A1.9,1.9,0,0,1,1.9,3.807Z" transform="translate(73.875 133.813)" fill="#a1a1a1"/><path d="M1.9,3.807a1.9,1.9,0,1,1,1.9-1.9A1.9,1.9,0,0,1,1.9,3.807Z" transform="translate(53.338 145.859)" fill="#a1a1a1"/><path d="M1.9,3.807a1.9,1.9,0,1,1,1.9-1.9A1.9,1.9,0,0,1,1.9,3.807Z" transform="translate(73.875 145.859)" fill="#a1a1a1"/><path d="M1.9,3.807a1.9,1.9,0,1,1,1.9-1.9A1.9,1.9,0,0,1,1.9,3.807Z" transform="translate(53.338 157.852)" fill="#a1a1a1"/><path d="M1.9,3.807a1.9,1.9,0,1,1,1.9-1.9A1.9,1.9,0,0,1,1.9,3.807Z" transform="translate(73.875 157.852)" fill="#a1a1a1"/><path d="M37.462,27.718V.031A240.439,240.439,0,0,0,0,2.525L1.443,27.979S23.431,31.333,37.462,27.718Z" transform="translate(52.395 16.08)" fill="#e6e6e6"/><path d="M11.989,23.983a11.991,11.991,0,1,1,11.993-11.99A11.99,11.99,0,0,1,11.989,23.983Z" transform="translate(71.588 3.109)" fill="#e6e6e6"/><path d="M11.99,23.982A11.991,11.991,0,1,1,23.981,11.993,11.99,11.99,0,0,1,11.99,23.982Z" transform="translate(58.392)" fill="#e6e6e6"/><path d="M11.99,23.98A11.99,11.99,0,1,1,23.979,11.99,11.99,11.99,0,0,1,11.99,23.98Z" transform="translate(45.152 3.68)" fill="#e6e6e6"/><path d="M.018,22.107c-.755,5.466,23.1,1.609,23.1,1.609l-1.355-14.7L7.388,0S.776,16.639.018,22.107Z" transform="translate(25.012 108.315)" fill="#e6e6e6"/><path d="M12.5,11.5c1.682-.421,12.9-5.289,13.58-10.1S0,5.709,0,5.709V11.5S10.816,11.916,12.5,11.5Z" transform="translate(42.737 140.839)" fill="#eea886"/><path d="M32.028,14.873s-27.07-2.7-29.594-6.489A16.324,16.324,0,0,1,0,0L32.028,8.112S31.578,13.7,32.028,14.873Z" transform="translate(12.029 138.032)" fill="#e6e6e6"/><path d="M39.186,24.842C17.544,24.842,0,19.282,0,12.42S17.544,0,39.186,0,78.368,5.56,78.368,12.42,60.825,24.842,39.186,24.842Z" transform="translate(0 124.577)" fill="#524b47"/><path d="M39.185,24.845C17.544,24.845,0,19.283,0,12.422S17.544,0,39.185,0,78.369,5.563,78.369,12.422,60.825,24.845,39.185,24.845Z" transform="translate(103.769 84.768)" fill="#e3cfc5"/><path d="M85.378,97.911s-49.9,9.518-85.378,0L25.46,0s10.646,6.274,53.6.893C79.059.893,77.88,35.319,85.378,97.911Z" transform="translate(15.873 174.844)" fill="#d1d1d1"/><path d="M.694,1.481C.1,2.214,0,1.132.182.39.449-.695,1.285.749.694,1.481Z" transform="translate(162.666 86.587)" fill="#a86230"/><path d="M37.69,27.732a14.524,14.524,0,0,1-1.505.124c-.259.008-.532.014-.818.014-.35,0-.718,0-1.106-.014h-.019c-.275-.009-.558-.018-.849-.034C25.4,27.47,11.3,25.16,5.024,24.078a5.851,5.851,0,0,1-4.785-4.8A20.325,20.325,0,0,1,1.377,8.864,16.26,16.26,0,0,1,2.9,5.9,13.518,13.518,0,0,1,6.108,2.466c7.238-5.394,40-.658,43.556,2.106a2.9,2.9,0,0,1,.4.386,4.417,4.417,0,0,1,.539.8A11.414,11.414,0,0,1,51.6,8.679c1.2,5.51.664,14.155.568,14.841C52.032,24.44,44.664,26.679,37.69,27.732Z" transform="translate(114.732 75.195)" fill="#c47428"/><path d="M34.242,21.068l-.849-.034C25.4,20.682,11.3,18.372,5.024,17.29a5.851,5.851,0,0,1-4.785-4.8A19.786,19.786,0,0,1,.2,6.642,19.7,19.7,0,0,1,1.377,2.076C7.7-2.186,33.346.414,36.651,7.148s-2.39,13.92-2.39,13.92Z" transform="translate(114.732 81.983)" fill="#db984b"/><path d="M33.749,9.455C24.223,8.55,17.808,3.44,0,5.9A13.892,13.892,0,0,1,1.8,3.678a12.963,12.963,0,0,1,1.4-1.212c6.608-4.927,34.51-1.4,42.008,1.351a6.082,6.082,0,0,1,1.548.755,2.9,2.9,0,0,1,.4.386C45.641,6.6,41.375,10.182,33.749,9.455Z" transform="translate(117.634 75.195)" fill="#ffcf99"/><path d="M2.341,21.977A14.524,14.524,0,0,1,.836,22.1c-.259.008-.532.014-.818.014L0,22.1S6.684,8.289,10.5,5.395A22.169,22.169,0,0,0,15.256,0a11.414,11.414,0,0,1,.991,2.924c1.2,5.51.664,14.155.568,14.841C16.683,18.685,9.315,20.924,2.341,21.977Z" transform="translate(150.081 80.95)" fill="#b56933"/><path d="M1.5,19.053a14.524,14.524,0,0,1-1.5.124c.059-.077,5.737-7.369,9.53-8.943C12.413,9.043,14.694,3.647,15.411,0c1.2,5.51.664,14.155.568,14.841C15.847,15.761,8.479,18,1.5,19.053Z" transform="translate(150.917 83.874)" fill="#a86230"/><path d="M0,3.678A12.963,12.963,0,0,1,1.4,2.466c6.608-4.927,34.51-1.4,42.008,1.351C28.953,1.719,8.11,3.034,0,3.678Z" transform="translate(119.439 75.195)" fill="#ffcf99"/><path d="M0,6.642A19.7,19.7,0,0,1,1.181,2.076C7.5-2.186,33.15.414,36.455,7.148s-2.39,13.92-2.39,13.92S19.763,4.3,0,6.642Z" transform="translate(114.928 81.983)" fill="#c98b45"/><path d="M1.054,3.4C1.842,1.825,1.58-.685,0,.175,0,.175.264,4.981,1.054,3.4Z" transform="translate(121.206 92.342)" fill="#ba8140"/><path d="M.806,1.855C1.035,1.294.117-.566.158.17.239,1.555.576,2.42.806,1.855Z" transform="translate(123.416 92.347)" fill="#ba8140"/><path d="M1.77.8C1.244-.637-.159.1.015,1.137S2.3,2.237,1.77.8Z" transform="translate(125.314 91.206)" fill="#ba8140"/><path d="M1.235,1.343C1.226.116,0-.587,0,.643S1.244,2.573,1.235,1.343Z" transform="translate(132.435 96.068)" fill="#ba8140"/><path d="M1.866.816C1.065-1.375.18,1.432.007,2.4S2.669,3.011,1.866.816Z" transform="translate(138.299 94.665)" fill="#ba8140"/><path d="M1.6,2.879c.615,0,1.316-2.86,0-2.877S-.355.114.2,1.123C.2,1.123.989,2.879,1.6,2.879Z" transform="translate(144.428 92.341)" fill="#ba8140"/><path d="M1.613,1.021C1.438-.47-.108-.2.006,1.021S1.789,2.512,1.613,1.021Z" transform="translate(140.909 88.671)" fill="#ba8140"/><path d="M1.479.574C1.226-.829,0,.677,0,1.5S1.729,1.977,1.479.574Z" transform="translate(136.821 87.627)" fill="#ba8140"/><path d="M.887,1.962C1.589,1.39.312-.715.074.25S.185,2.535.887,1.962Z" transform="translate(144.354 86.637)" fill="#ba8140"/><path d="M.978,1.623C1.345.26.522-.4.2.26-.44,1.608.612,2.984.978,1.623Z" transform="translate(154.949 86.976)" fill="#a86230"/><path d="M.558,1.868C1.611.861,1.069-.686.558.335.2,1.061-.494,2.871.558,1.868Z" transform="translate(157.401 85.76)" fill="#a86230"/><path d="M1.125.4C1.232-.8.092,1.023,0,1.691S1.017,1.6,1.125.4Z" transform="translate(154.359 90.317)" fill="#a86230"/><path d="M1.386.481C1.386-.764.118.628.006,2.166-.1,3.643,1.386,1.728,1.386.481Z" transform="translate(157.977 92.036)" fill="#a86230"/><path d="M1.1.714C1.425-.669.308.258.044.978S.768,2.093,1.1.714Z" transform="translate(160.487 89.338)" fill="#a86230"/><path d="M.438,2.132C1.359,1.046,1.089-.557.766.193.258,1.382-.483,3.22.438,2.132Z" transform="translate(161.607 90.123)" fill="#a86230"/><path d="M2.231.32C.618-.257-.575.173.29.656,1.319,1.232,3.842.9,2.231.32Z" transform="translate(147.48 79.233)" fill="#f5965e"/><path d="M2.192.728C.191.028-.4-.481.257.728.748,1.628,4.192,1.428,2.192.728Z" transform="translate(142.71 80.222)" fill="#f5965e"/><path d="M2.266.255C1.519.095-.585.113.156.7.665,1.113,3.013.416,2.266.255Z" transform="translate(151.578 79.925)" fill="#f5965e"/><path d="M14.856,3.376C19.2,4.69,18.842,1.487,8.714.458S.077.458.077.458,10.514,2.061,14.856,3.376Z" transform="translate(133.996 79.513)" fill="#f5965e"/><path d="M47.855,16.44,26.87,23.305S-2.344,13.989.151,9.135a70.717,70.717,0,0,1,16.8-6.574A78.557,78.557,0,0,1,28.132.469,74.333,74.333,0,0,1,35.878,0,44.884,44.884,0,0,1,42.632.41c.407.062.8.127,1.174.2a17.09,17.09,0,0,1,4.821,1.573c2.833,1.489,3.7,3.48,3.865,5.092a6.2,6.2,0,0,1-.369,2.818Z" transform="translate(12.119 120.319)" fill="#e4af61"/><path d="M8.352,13.2,0,8.527,23.481,0c6.78,1.288,8.453,4.362,8.686,6.665Z" transform="translate(32.444 120.927)" fill="#c1753a"/><path d="M4.1,9.346H0L15.941,2.092A78.557,78.557,0,0,1,27.122,0C17.777,3.23,4.1,9.346,4.1,9.346Z" transform="translate(13.129 120.788)" fill="#facb7c"/><path d="M7.975,11.244,0,9.681,29.437,0c.407.062.8.127,1.174.2a17.09,17.09,0,0,1,4.821,1.573Z" transform="translate(25.314 120.729)" fill="#bc5d40"/><path d="M9.7,13.4A76.82,76.82,0,0,1,.354,9.767C-1.387,1.734,3.525-.21,9.868.017c5.5.194,12.067,2.023,16.305,2.935,9.131,1.965,2.389,13.214,2.389,13.214C22.212,16.739,15.163,15.142,9.7,13.4Z" transform="translate(10.427 127.458)" fill="#ece6c8"/><path d="M.2,1.336C-.155.707,0,.33.382.145A3.178,3.178,0,0,1,3.007.524c.288.206.248.447.027.665C2.462,1.753.666,2.16.2,1.336Z" transform="translate(30.148 124.597)" fill="#364163"/><path d="M.354,9.767C-1.387,1.734,3.525-.21,9.868.017,9.839.081,6.463,7.892,9.7,13.4A76.82,76.82,0,0,1,.354,9.767Z" transform="translate(10.427 127.458)" fill="#e0dbbf"/><path d="M.015.89A1.083,1.083,0,0,1,.383.37C1.258-.325,3.174.022,3.269.89a.462.462,0,0,1-.261.441C2.2,1.829-.209,1.567.015.89Z" transform="translate(37.788 123.937)" fill="#364163"/><path d="M0,.86A.819.819,0,0,1,.327.31c.825-.639,2.9-.241,2.961.741a.519.519,0,0,1-.312.506C2.137,2-.085,1.481,0,.86Z" transform="translate(45.485 124.447)" fill="#364163"/><path d="M.1.421A3.824,3.824,0,0,1,.507.22,2.029,2.029,0,0,1,3.3,1.05c.038.123-.062.2-.253.236C2.172,1.45-.554.795.1.421Z" transform="translate(42.93 121.303)" fill="#364163"/><path d="M.2,1.191C-.155.562,0,.185.382,0A2.353,2.353,0,0,0,3.034,1.044C2.462,1.608.666,2.015.2,1.191Z" transform="translate(30.148 124.742)" fill="#242c42"/><path d="M.015.52A1.083,1.083,0,0,1,.383,0,3.223,3.223,0,0,0,3.008.961C2.2,1.459-.209,1.2.015.52Z" transform="translate(37.788 124.307)" fill="#242c42"/><path d="M0,.55A.819.819,0,0,1,.327,0,5.369,5.369,0,0,0,2.976,1.247C2.137,1.685-.085,1.171,0,.55Z" transform="translate(45.485 124.757)" fill="#242c42"/><path d="M3.042,1.066C2.172,1.23-.554.575.1.2A3.824,3.824,0,0,1,.507,0,13.212,13.212,0,0,0,3.042,1.066Z" transform="translate(42.93 121.523)" fill="#242c42"/><path d="M.5.873A.374.374,0,1,0,.125.5.375.375,0,0,0,.5.873Z" transform="translate(17.317 131.846)" fill="#242c42"/><path d="M.859,2.216A1.01,1.01,0,0,1,0,1.106,1.006,1.006,0,0,1,.859,0a1.007,1.007,0,0,1,.859,1.106A1.011,1.011,0,0,1,.859,2.216Z" transform="translate(20.295 129.757)" fill="#242c42"/><path d="M.869,2.906C.389,2.906,0,2.255,0,1.453S.389,0,.869,0s.869.649.869,1.453S1.349,2.906.869,2.906Z" transform="translate(25.314 135.6)" fill="#242c42"/><path d="M.924,2.7C.412,2.7,0,2.1,0,1.35S.412,0,.924,0s.924.606.924,1.35S1.433,2.7.924,2.7Z" transform="translate(30.596 134.352)" fill="#242c42"/><path d="M.6,1.2A.6.6,0,1,1,1.2.6.6.6,0,0,1,.6,1.2Z" transform="translate(13.484 135.6)" fill="#242c42"/><path d="M.514,1.665C.232,1.665,0,1.292,0,.833S.232,0,.514,0s.515.371.515.833S.8,1.665.514,1.665Z" transform="translate(18.866 134.537)" fill="#e8c489"/><path d="M.5.976A.477.477,0,1,1,.975.5.477.477,0,0,1,.5.976Z" transform="translate(26.485 131.743)" fill="#e8c489"/><path d="M.536,2.176C.239,2.176,0,1.688,0,1.089S.239,0,.536,0s.536.485.536,1.089S.83,2.176.536,2.176Z" transform="translate(29.869 139.632)" fill="#e8c489"/><path d="M.5.66.338.5.5.34.661.5Z" transform="translate(30.858 131.633)" fill="#e8c489"/><path d="M.5,1.071C.35,1.071.228.829.228.535S.35,0,.5,0,.771.238.771.535.65,1.071.5,1.071Z" transform="translate(26.281 129.404)" fill="#e8c489"/><path d="M.5,1.459C.326,1.459.189,1.133.189.73S.326,0,.5,0,.812.326.812.73.67,1.459.5,1.459Z" transform="translate(17.007 129.404)" fill="#e8c489"/><path d="M.518,1.553C.232,1.553,0,1.206,0,.776S.232,0,.518,0s.516.347.516.776S.8,1.553.518,1.553Z" transform="translate(34.447 138.079)" fill="#e8c489"/><path d="M.684,2.006C.306,2.006,0,1.556,0,1S.306,0,.684,0s.682.45.682,1S1.061,2.006.684,2.006Z" transform="translate(36.552 132.346)" fill="#e8c489"/><path d="M.5.814A.315.315,0,1,1,.815.5.314.314,0,0,1,.5.814Z" transform="translate(13.299 132.535)" fill="#e8c489"/><path d="M2.233,1.455C1.147,1.523-.3,1.164.054.649L.277.408c.933-.762,3.1-.377,3.063.5C3.326,1.252,2.836,1.42,2.233,1.455Z" transform="translate(55.476 124.875)" fill="#364163"/><path d="M.054.241.277,0A5.482,5.482,0,0,0,2.233,1.047C1.147,1.115-.3.756.054.241Z" transform="translate(55.476 125.283)" fill="#242c42"/></g></g></svg>